<svg xmlns="http://www.w3.org/2000/svg" xmlns:xlink="http://www.w3.org/1999/xlink" viewBox="0 0 2026 980">
  <defs>
    <radialGradient id="a" cx="1747.48" cy="406.33" r="189.56" gradientUnits="userSpaceOnUse">
      <stop offset="0" stop-color="#79b034" stop-opacity="0.77"/>
      <stop offset="1" stop-color="#3e6525"/>
    </radialGradient>
  </defs>
  <g style="isolation: isolate">
    <g>
      <g>
        <path d="M548.15,942.25C1306.41,967.58,1804.05,774.48,1971.07,698c31.53-20.8,63.78-20.55-34.72-33.45-210.93-27.62-1348.2-293.5-1740.85,53.16C79.35,820.27,329.91,942.25,548.15,942.25Z" style="fill: #83bd38"/>
        <path d="M317.26,784.07c39,16.61,79.8,26.3,120.66,33,224.59,37,454.4,24,677.85-22.87,118.33-24.84,250.57-127,354.12-117,52,5,95.61-18.35,142.65-43.33,11.3-6,22.55-12.25,33.67-18.88C1250.9,549.31,594.59,467.09,264.64,667.23a186.82,186.82,0,0,0-14.74,34.4C234.94,749.5,284.51,770.12,317.26,784.07Z" style="fill: #83bd38;mix-blend-mode: screen;opacity: 0.4"/>
      </g>
      <g>
        <path d="M366.42,807.8l131.42,19.62c27.75-27.13,59-22.92,59-22.92-15.11-15.37-31.65-20.14-31.65-20.14a107.09,107.09,0,0,1,38.53-6.25c-37.1-28.5-77.91-16.28-77.91-16.28,20.1-26.33,51.14-44.46,51.14-44.46-57.46-15.65-96.6,29.85-96.6,29.85C440.12,718,471.49,687,471.49,687c-44.74,16.36-57.6,58-57.6,58-11-30.18-40.57-38.36-40.57-38.36,28.5,30,15.17,54.16,15.17,54.16C362,727,325.24,742.35,325.24,742.35c23.9,3.14,36.61,26.75,36.61,26.75-24.26-7.16-54.61,26.16-54.61,26.16C339.4,785.67,365,807.55,365,807.55Z" style="fill: #65a309"/>
        <path d="M490.81,826.37c15.66-17,51.75-27.81,51.75-27.81-16.06-11.09-47.3-8.18-47.3-8.18,22.43-19.79,54.8-15.87,54.8-15.87-34.2-16.45-91.26,18-91.26,18,9.14-35.21,69.68-73,69.68-73C469.06,711,432.9,773,432.9,773c-8.32-33.31,22-71.86,22-71.86C435.15,717.37,421,764.86,421,764.86c-4.23-18.36-19.78-31.32-19.78-31.32,12.4,27.32,19.35,63.87,19.35,63.87-24.35-40.3-57.92-48.85-57.92-48.85C398.17,763.25,410.34,804,410.34,804c-34-34.77-79.61-17.77-79.61-17.77,29.44-6.2,52,18.24,57.49,24.84Z" style="fill: #8ec200"/>
      </g>
      <g>
        <g>
          <path d="M693.16,768.31a12.29,12.29,0,0,0,2.12-3.71c1.77-6.83-5-9.42-10.5-4.47a69.75,69.75,0,0,0-6.5,6.41c-3.85-3.55-9.73-6.91-15.62-4.76-4,1.46-7.55,4-7.58,8.21,0,3.51,4.09,5.29,8.64,6.16-6,2.8-11,7-10.64,12.29s10.84,2.28,13.64,1.26A37.55,37.55,0,0,0,678.51,782c.66,3.78,2.67,6.79,7.45,8.56,3.31,1.21,7.94-.34,10-2.82a8.07,8.07,0,0,0,1.89-7.92c4.09-.67,7.54-2.37,8.47-5.72C708.13,767.66,700.71,767,693.16,768.31Z" style="fill: #94ba33;mix-blend-mode: multiply;opacity: 0.4"/>
          <path d="M693.16,765.06a10.64,10.64,0,0,0,2.12-3.73c1.77-6.71-5-9.31-10.5-4.4a67.87,67.87,0,0,0-6.5,6.46c-3.85-3.58-9.73-6.94-15.62-4.78-4,1.42-7.55,4-7.58,8.18,0,3.53,4.09,5.26,8.64,6.16-6,2.83-11,6.95-10.64,12.32s10.84,2.27,13.64,1.22a38.41,38.41,0,0,0,11.79-7.71c.66,3.78,2.67,6.79,7.45,8.59,3.31,1.2,7.94-.4,10-2.86,2.25-2.71,2.69-5.43,1.89-7.91,4.09-.65,7.54-2.35,8.47-5.76C708.13,764.46,700.71,763.76,693.16,765.06Z" style="fill: #fff"/>
          <path d="M686.11,769.52c0,2.48-3.21,4.48-7.16,4.48s-7.18-2-7.18-4.48S675,765,679,765,686.11,767,686.11,769.52Z" style="fill: #ffcb59"/>
        </g>
        <g>
          <path d="M1020.54,628.46a17.77,17.77,0,0,0,3.05-5.37c2.54-9.77-7.22-13.53-15.09-6.39a100.4,100.4,0,0,0-9.34,9.21c-5.55-5.1-14-9.94-22.46-6.84-5.79,2.09-10.86,5.82-10.9,11.8,0,5,5.9,7.61,12.42,8.86-8.58,4-15.86,10-15.29,17.67s15.59,3.29,19.59,1.79c5.92-2.19,12-6.47,17-11.1.95,5.46,3.84,9.76,10.72,12.32,4.76,1.75,11.42-.5,14.38-4.06,3.21-3.8,3.86-7.86,2.7-11.37,5.89-1,10.84-3.45,12.19-8.23C1042.06,627.54,1031.4,626.54,1020.54,628.46Z" style="fill: #94ba33;mix-blend-mode: multiply;opacity: 0.4"/>
          <path d="M1020.54,623.81a15.66,15.66,0,0,0,3.05-5.36c2.54-9.69-7.22-13.43-15.09-6.36a96.33,96.33,0,0,0-9.34,9.3c-5.55-5.17-14-10-22.46-6.89-5.79,2-10.86,5.83-10.9,11.76,0,5.08,5.9,7.56,12.42,8.86-8.58,4.08-15.86,10-15.29,17.73s15.59,3.28,19.59,1.72a54.68,54.68,0,0,0,17-11.09c.95,5.44,3.84,9.77,10.72,12.35,4.76,1.77,11.42-.53,14.38-4.08,3.21-3.85,3.86-7.82,2.7-11.39,5.89-.93,10.84-3.36,12.19-8.24C1042.06,622.94,1031.4,621.93,1020.54,623.81Z" style="fill: #fff"/>
          <path d="M1010.4,630.19c0,3.58-4.6,6.44-10.28,6.44s-10.32-2.86-10.32-6.44,4.63-6.48,10.32-6.48S1010.4,626.59,1010.4,630.19Z" style="fill: #ffcb59"/>
        </g>
      </g>
      <g>
        <path d="M1343.61,132.38a36.66,36.66,0,0,0,31.89,28.86c13.65,1.42,34.17,3.82,48.44-2.58,9.62,9.07,22.32,16.19,30.32,19.1,29.81,10.82,60,7.84,87-6.43.85.74,1.63,1.47,2.42,2.14,14.08,12.05,34,16.81,51.79,18.59,16.17,1.6,38.43.06,52.36-9.29A54,54,0,0,0,1660.45,171c14.93,7.7,33,10,48.61,4.46,8.72-3.08,13.92-10.38,15.66-18.52,34.68,9.92,83.24,6,62.26-33.34-9.79-18.48-36.3-23.52-54.93-24.76-19.18-1.29-39.21-.62-55.94,8-3.47-13.61-19.07-27.29-29.37-32-14.1-6.37-31.89-7.11-46-1.44-1.45-1.51-2.85-3-4.31-4.38-18.06-17.06-40.72-26.59-65.06-30.19-17.22-2.51-40.05-5.3-54.93,6.19C1461.19,56.81,1460,77,1468,93c-10.85-6.57-27.41-7.93-37-.89-4.25,3.1-8.67,6.63-9.51,11.24-12.19-3.27-25.34-5.71-37.87-2.79C1370,103.77,1339.36,112.37,1343.61,132.38Z" style="fill: #c6ecf0"/>
        <path d="M1739.37,106.26c-23.55-2.32-47.65,1.62-67.12,13.17-5.76-16.28-19.07-31-33.68-36.64-15.77-6.08-32.5-7.24-46.76-2.21-4.19-6.19-8.62-12.19-15.1-17.4a81.74,81.74,0,0,0-26.8-13.94c-18.12-5.62-40.39-9.06-58.34-.57C1467,60.22,1467.24,82.33,1478.09,101c-15.33-5.91-31-7.48-43.46,2-5.88,4.41-8,10.63-7.78,17.2-17.51-11.41-39.33-17.28-58.18-10.38a76,76,0,0,0-24.84,14.68c4-14.46,28.14-21.21,39.78-23.91,12.53-2.92,25.68-.48,37.87,2.79.84-4.61,5.26-8.14,9.51-11.24,9.56-7,26.12-5.68,37,.89-8-16-6.77-36.23,8.5-48.07,14.88-11.49,37.71-8.7,54.93-6.19,24.34,3.6,47,13.13,65.06,30.19,1.46,1.39,2.86,2.87,4.31,4.38,14.09-5.67,31.88-4.93,46,1.44,10.3,4.7,25.9,18.38,29.37,32,16.73-8.58,36.76-9.25,55.94-8,18.63,1.24,45.14,6.28,54.93,24.76a42.16,42.16,0,0,1,4.8,13.31C1779.93,120,1757.89,108.1,1739.37,106.26Z" style="fill: #6bc2c7"/>
      </g>
      <g>
        <path d="M1683.33,763.47l-3.29-4.22a38.1,38.1,0,0,1-6.19-11.63l-1.66-5.09a.7.7,0,0,0-.85-.45c-4.71,1.35-13,6.22-15.29,13.6a12.26,12.26,0,0,0-.73,5,3.59,3.59,0,0,1-.3,2.18l-.24.48a2.11,2.11,0,0,0,0,1.91,2.08,2.08,0,0,0,1.57,1.08l.53.08a3.78,3.78,0,0,1,2,1,12.3,12.3,0,0,0,4.52,2.17c7.37,2.25,16.07-1.93,19.82-5.1A.68.68,0,0,0,1683.33,763.47Z" style="fill: #ffb748"/>
        <path d="M1692.61,747c-.7.48-2.82,1.79-4.48,2.8a.63.63,0,0,1-.55.08h0a.69.69,0,0,1-.42-.34,4.73,4.73,0,0,0-.38-.66l-.52-1s0,0,0-.09-.16-.33-.24-.5a.65.65,0,0,1,0-.59.68.68,0,0,1,.44-.39,4.67,4.67,0,0,0,1.07-.42,2,2,0,0,0,.52-.66,3.52,3.52,0,0,1,1.7-1.64c1.5-.6,3.2-.18,3.8.92C1693.84,745.2,1693.79,746.18,1692.61,747Zm-2.66,8.24c-.31-3.25-1-5.66-2-7.09l-.44-.8c-.65-1.7-2.27-3.62-4.8-5.69a13,13,0,0,0-9.41-2.91,2.93,2.93,0,0,0-2.51,3.9l1.75,5.41a39.47,39.47,0,0,0,6.42,12.06l3.49,4.47a3,3,0,0,0,1.49,1,3,3,0,0,0,.8.13,2.9,2.9,0,0,0,2.35-1.1A13,13,0,0,0,1690,755.24Z" style="fill: #674c41"/>
        <path d="M1687.56,749.86a.73.73,0,0,1-.42-.34,4.61,4.61,0,0,0-.38-.65l-.52-1a.15.15,0,0,1,0-.08q-.11-.24-.24-.51a.69.69,0,0,1,.41-1,5.89,5.89,0,0,0,1.08-.43,2.24,2.24,0,0,0,.52-.65,3.48,3.48,0,0,1,1.7-1.64c1.5-.6,3.2-.18,3.79.91a1.85,1.85,0,0,1-.89,2.44c-.69.48-2.82,1.79-4.48,2.81a.73.73,0,0,1-.54.08A0,0,0,0,0,1687.56,749.86Zm0-2.44.39.73a.61.61,0,0,0,.07.1c2-1.24,3.33-2.06,3.8-2.39.1-.08.58-.42.46-.65a1.78,1.78,0,0,0-2.06-.26,2.23,2.23,0,0,0-1,1.08,2.91,2.91,0,0,1-1,1.13A5.1,5.1,0,0,1,1687.55,747.42Zm-24.14,22.1a12.13,12.13,0,0,1-4.52-2.18,3.73,3.73,0,0,0-2-1l-.53-.07a2.09,2.09,0,0,1-1.59-3l.23-.48a3.75,3.75,0,0,0,.31-2.19,12,12,0,0,1,.72-5c2.25-7.38,10.58-12.25,15.29-13.6a.7.7,0,0,1,.85.45l1.66,5.09a38.1,38.1,0,0,0,6.19,11.63l3.29,4.22a.68.68,0,0,1-.1.95C1679.48,767.59,1670.78,771.77,1663.41,769.52Zm-5.61-4.37a5.45,5.45,0,0,1,2,1.16,10.9,10.9,0,0,0,4,1.88c6.72,2.06,14.65-1.85,18-4.41l-2.86-3.67a39.42,39.42,0,0,1-6.42-12.07l-1.45-4.42c-4,1.34-11.67,5.74-13.72,12.46a11,11,0,0,0-.68,4.38,5.13,5.13,0,0,1-.44,3l-.23.48a.66.66,0,0,0,0,.64.65.65,0,0,0,.51.36l.53.07A3.92,3.92,0,0,1,1657.8,765.15Zm2.22-8.26a14.38,14.38,0,0,1,5-6.74.7.7,0,1,0-.87-1.09,15.83,15.83,0,0,0-5.5,7.42.69.69,0,1,0,1.32.41Zm23.91,8.75a2.91,2.91,0,0,1-1.5-1.07l-3.49-4.47a39.47,39.47,0,0,1-6.42-12.06l-1.74-5.39a2.93,2.93,0,0,1,2.51-3.9,13,13,0,0,1,9.41,2.91c2.53,2.07,4.15,4,4.8,5.69l.44.8c1,1.42,1.7,3.84,2,7.09a13.14,13.14,0,0,1-2.85,9.44,2.91,2.91,0,0,1-2.35,1.09A3.19,3.19,0,0,1,1683.93,765.64Zm-6.06-25a11.93,11.93,0,0,0-4.47-.48,1.55,1.55,0,0,0-1.32,2.07l1.76,5.43a38.17,38.17,0,0,0,6.19,11.62l3.5,4.48v0a1.53,1.53,0,0,0,1.22.63,1.48,1.48,0,0,0,1.24-.58,11.65,11.65,0,0,0,2.56-8.42c-.28-3-.91-5.22-1.8-6.5l-.52-1a14.49,14.49,0,0,0-4.42-5.2A11.47,11.47,0,0,0,1677.87,740.6Zm1.35,5.59a2.84,2.84,0,0,0-.11-2.34,3.71,3.71,0,0,0-2.15-2.08.7.7,0,0,0-.41,1.33,2.34,2.34,0,0,1,1.29,1.3,1.6,1.6,0,0,1,.12,1.2.72.72,0,0,0,.34.93l.1,0A.68.68,0,0,0,1679.22,746.19Zm5.4,6a2.84,2.84,0,0,0-.11-2.34,3.63,3.63,0,0,0-2.15-2.07.69.69,0,0,0-.87.46.68.68,0,0,0,.47.86,2.36,2.36,0,0,1,1.29,1.31,1.56,1.56,0,0,1,.13,1.2.71.71,0,0,0,.32.93l.1,0A.66.66,0,0,0,1684.62,752.18Zm.63,7.44a2.84,2.84,0,0,0-.11-2.34,3.69,3.69,0,0,0-2.15-2.07.69.69,0,1,0-.41,1.32,2.38,2.38,0,0,1,1.3,1.31,1.66,1.66,0,0,1,.13,1.2.68.68,0,0,0,.32.92l.09,0A.68.68,0,0,0,1685.25,759.62Z" style="fill: #0c0d0d"/>
      </g>
      <g>
        <path d="M1710.87,562.08c1.59-1.75,2.75-1.85,4.14-1.45,14.92,4.28,22.21,2.43,31.16-9.71,5-6.77,9.09-10,15.78-2.41,3.45,3.9,7.08,3.25,11.27.34a90.47,90.47,0,0,1,14.82-8.09c6.84-3.07,25.4,4,29.26,10.25,2.27,3.65,1.76,5.43-1.52,8-14.79,11.77-18.75,27.48-15.59,45.45,1.49,8.49,3.12,17,5,25.36,5.52,25.12,20.12,43.54,42,56.62,2.88,1.71,8,2.76,6.88,7.27s-6.17,2.79-9.54,2.77a237.76,237.76,0,0,1-55.24-7.15c-4.89-1.19-7.89-1.77-9.93,4.61-3,9.23-6.26,9.4-14.52,3.51-12.73-9.08-25.61-15.35-42.28-8.55-15.53,6.34-32.45,6.64-49.17,6-2.53-.09-5.76.49-6.57-3s2.41-4.49,4.66-5.49c29.15-12.94,42.67-36.42,46-67,.86-7.9,2.49-15.72,3.57-23.61C1723.24,579.62,1721.63,574.37,1710.87,562.08Z" style="fill: #724d07"/>
        <path d="M1674.44,692.18c4.94-3.28,7.86-5.24,10.8-7.16,14.8-9.68,25-22.93,29.59-40,5.14-18.94,7.7-38.38,8.7-57.95.46-9.07,4.49-17.83,12.14-22.52,2-1.21,4.2-2.42,5.51-4.22,5.65-7.79,11.07-13.47,20.57-4.14,3.78,3.72,7.56-1.09,10.26-3.42,9.58-8.26,20-9.08,31.44-5,5.55,2,8.62,4.65,3.28,9.76-14.87,14.21-17,31.58-13,50.51,2,9.39,4.18,18.76,6.73,28,5.62,20.36,17.2,36.46,35.22,47.79,3,1.87,5.79,4,10.79,7.52a275,275,0,0,1-61.32-7.26c-6.15-1.46-10.6-3.27-10.35,6.36.16,6.1-3.48,7.33-9.16,3.2-14-10.17-28.65-15.1-46.38-7.6C1706.18,691.63,1691.67,693.22,1674.44,692.18Z" style="fill: #c66500"/>
        <path d="M1521.75,463.63c.3-10.92,2.12-25,8-38.32,9.72-22,28.73-33.59,53.69-31.33,8.32.76,9.36-.69,6.85-8.51-8.13-25.34-4-49.23,10.81-71.19,9.82-14.56,23.18-21.72,41.07-17.38,4.28,1,5.34-.12,6.66-4.2,15.51-47.89,58.54-66.51,104.43-44.89,18.5,8.72,36.25,18.93,42.93,40.39,1,3.19,2.63,3.45,5.1,2.27a18.92,18.92,0,0,0,5.11-3c25.22-24.26,54.88-18.07,77.92-2.93,27.25,17.9,45.22,43.2,43.29,77-.75,13.05,1.31,17.64,13.25,23,27.06,12.21,33.41,36.86,32.24,64.13-.6,14-3,27.72-8.95,40.59-5.9,12.67-15.08,21.94-28.75,25.74-5.52,1.53-8.34,4.26-8.94,9.82-.36,3.38-1.7,7.57-4.42,8.59-9.93,3.72-10.71,13-15.07,20.57-9,15.77-25.94,18.23-42.46,19.66-19.44,1.68-31.19-9.09-38.84-25.29-5-10.61-12.45-17-24.44-17.32-10.83-.33-16.76-8.93-24.14-14.75-5.66-4.48-9.23-4.38-14.15.92-5.27,5.68-9.08,12.27-13.6,18.4-13,17.66-30,20.53-47.4,7.34-4.45-3.37-6.5-3.8-9.69,1.2a68.87,68.87,0,0,1-11,12.81c-12.78,12-24.93,12.38-37.73.28-4.62-4.36-7.14-2-10.77.22-14.46,8.78-29.11,11.14-43.88.68-11-7.77-15.87-18.55-15-31.8.29-4.69-.14-6.69-5.9-7.15C1534.55,516.46,1521.38,501.33,1521.75,463.63Z" style="fill: #3e6525"/>
        <path d="M1580.64,407.89c5.22-2.42,12.89,4.74,17.8-2.29,4.78-6.82-2.37-12.22-4-18.26-5.82-22.26-3.34-43,8.89-62.79,8-13,19.5-18.47,33.62-15.4,9.91,2.16,12.42-1.59,14-9.65,2.64-13.89,7.67-26.54,19.34-35.69,20-15.69,42.59-16.93,65.88-10.68,11.49,3.08,21.91,9.48,31.6,16.48,7.9,5.72,14.43,12.93,16.43,22.85,1.27,6.27,4.52,7.58,10,5.68,4.06-1.42,8.42-2.44,11.39-5.82,18.74-21.3,46.87-17.19,67.44-5.83,24.46,13.5,37.74,35.41,44.4,61.69,1.72,6.8-.32,13.86-2.83,20.29-2.62,6.71-.43,10.16,6.06,11.6,38.28,8.46,47,39.41,43.74,70.17-1.28,12.17-3.25,24.07-9.46,35.08a34.88,34.88,0,0,1-21.16,16.95c-7.81,2.27-12.4,5.33-12.17,14,.1,3.82-2.08,7.63-5.93,8.35-7.88,1.48-9.72,6.69-10.09,13.45-.47,8.59-5.88,13.6-12.87,17.48-7.66,4.24-16.09,6.27-24.59,7.25-15,1.73-25.65-5.78-31.87-18.65C1829.71,530.67,1819.86,523,1805,522c-10.53-.74-16.44-9.29-24.38-14.33-6.69-4.24-11.91-4.13-17.66,1.44-7,6.79-12,14.95-17.14,23-8.7,13.49-21.18,16.16-34.83,7.56a35.72,35.72,0,0,1-5-3.25c-5.46-4.84-9.49-4.5-13.56,2.12-3.77,6.15-7.86,12.29-13.45,17.11-9.53,8.22-17.73,9.27-25.44.91-7.42-8.06-13-6.71-20.86-1-16.09,11.62-34.35,8.49-44-6.94-3.54-5.64-5.23-11.89-3.85-18.7s-.59-10.74-8.59-10.58a73.12,73.12,0,0,1-17.7-1.77c-20.2-4.63-26.89-17.69-28.32-40.08a97.84,97.84,0,0,1,4.33-35.15C1541.61,419.46,1555.75,408.64,1580.64,407.89Z" style="fill: url(#a)"/>
      </g>
      <path d="M1447.66,839.77c-12.4-10.66-27.14-17.09-41.89-23.73-20.59-9.27-43-13.23-63.55-22.47-4.06-1.83-8.73-3.69-8.86-8.69-.14-5.27,5.19-6.91,8.92-8.55,15.35-6.75,31.72-10.33,48-14.16,12-2.84,24-6.19,35-11.74,9.77-4.89,10-9.46,1.93-16.43-3.69-3.21-8.1-4.77-12.21-7-10.83-5.91-22.8-9.82-32-18.55-6.23-5.89-6.14-11,1.06-15.49,3.06-1.93,6.76-3,10.28-4.06,20.28-6.11,41.46-6,62.21-7.51,43.1-3.12,86.43-2.83,129.49-7.2a184,184,0,0,0,22.62-3.78c20.51-4.69,20.45-6.13,5.32-22.19-6.12-6.48-5-11.5,1.74-15.66,4.52-2.81,9.83-4.33,14.72-6.58,7.55-3.46,16.4-3,24.14-7.76-4.19-1.9-8-1.17-11.38-.51-20.42,3.92-41.27,5.49-61.31,11.68-16.29,5-17.69,7-11.5,22.29-2.6,3.55-6.73,4.36-10.6,4.92-13,1.89-26,3.93-39,4.92-37.35,2.82-74.84,2.34-112.23,5.76-26.48,2.42-53.16,3.24-79.48,7.39-12.5,2-25.46,3.15-36.69,10.11-7.2,4.46-7.74,8.69-1.48,14.3,3.75,3.37,8.21,6,11.75,9.56,4.54,4.56,4.71,9.25-2.34,11.48-8.3,2.61-16.67,5.87-25.21,6.63-19.8,1.76-39.68,2.19-59.53,3.88-45.24,3.84-90.23,7.65-134.6,18.79a576.07,576.07,0,0,0-88.41,29.69c-5.14,2.22-10.08,4.9-13,10.87,6,2.92,11.87,4.09,17.75,5.33,9.53,2,19.39,2.65,28.3,7.28,9.76,5.08,11.73,10.79,6.39,20.55-6,11-16.85,14.16-27.82,16.34-45.47,9.07-91.73,12.45-137.58,18.73-29.89,4.09-60,6.69-89.74,11.57-61,10-121.83,21.16-182.22,34.36-21.08,4.61-55.45,22.69-76.29,37.38q15,.72,29.82.74c369.19,12.33,676.59-27.12,914.14-79.68C1460.2,854.05,1455.4,846.42,1447.66,839.77Z" style="fill: #3799ce"/>
      <path d="M1547.83,899.83a2.65,2.65,0,0,1-1.75-2.18,3.41,3.41,0,0,1,.32-2.77c-.84-3.11-1.1-4.19-1.58-6.2a5.59,5.59,0,0,1-2.75-3.74c3.12-4.15,7.34-6.83,14.19-8.48,5.63-1.35,11-1.09,11.88,2.58s-.52,6.47-3,9.19c4.06-.22,7.2.44,8.17,4.47,2.45,10.15-8.36,17.34-18.29,19.92-1.56.38-2.78-.74-4-2.53C1549.93,907,1549,904,1547.83,899.83Zm13.68-17.49c-.14-.58-1.92-.48-3.66-.06a22.51,22.51,0,0,0-6.64,2.87c.09,1,1.11,4.42,1.51,5.89C1558.78,888.3,1562.23,885.34,1561.51,882.34Zm5.24,12.75c-.28-1.17-1.58-1.85-4.17-1.22s-6.57,2.57-8,4a65,65,0,0,0,2.23,7.31C1561.29,903.45,1567.78,899.33,1566.75,895.09Zm12.9-3.21a3.39,3.39,0,0,1-1.56-2.21,4.33,4.33,0,0,1,.3-2.93c-.84-4.06-1.22-5.72-1.52-6.88a5.44,5.44,0,0,1-2.76-3.75,16.8,16.8,0,0,1,3.34-3.47c4.88-1.53,17.87-5.88,20.13-5.94a5,5,0,0,1,1.58,2.45,3.5,3.5,0,0,1-1.13,3.75c-3.94,1.86-10.32,3.49-14.37,5.09.4,1.75.89,3.86,1.42,5.57,3-.89,9.07-3,13.39-4.65a3.64,3.64,0,0,1,2.41,2.57,4,4,0,0,1-1.1,4.08c-2.76,1.08-6.48,2.32-9.55,3.29-1.75.59-2.69.83-3.83,1.21.36,2,.91,4.47,1.73,7.68a77.29,77.29,0,0,0,14.27-6.2c1.91-.35,3.24,1,3.7,2.8a6.53,6.53,0,0,1,.06,2.46c-5.1,4.19-13,6.63-19.38,8.5a7.27,7.27,0,0,1-4.64-2.19Zm32.86-5.13a35.87,35.87,0,0,0-1.61-17.29c-2.13.39-4.12-.79-4.52-2.3a7.69,7.69,0,0,1,.07-2.93c4.71-1.93,14.68-5.43,19.06-6.7a4,4,0,0,1,3.68,1.29c2.93,7.36,6.21,21.82,8.79,30a4.17,4.17,0,0,1-3.12,3.27,3.54,3.54,0,0,1-4-1.2c-1.17-4.35-4.93-20.06-6.7-25.92-2.52.73-5.38,1.59-6.93,2.2,1.06,4,3.18,12.15,2.43,19.45-.48,4.42-2.32,10-4.44,11.3-3.26.45-4.67-.7-5.64-4A20.94,20.94,0,0,0,1612.51,886.75Zm25.62-13.09c-3.09-10.83,3.18-19.36,11.72-21.8,9.24-2.63,17.59,2,20.37,11.75,3.4,11.94-4.4,20-12.68,22.31S1641,883.66,1638.13,873.66Zm25.28-8.11c-1.87-6.54-7-8.62-11.56-7.32-5.13,1.46-9.18,6.2-7.06,13.63,1.85,6.5,6.32,8.77,11.19,7.38C1659.82,878.15,1665.89,874.27,1663.41,865.55Zm8.93-13.89a6,6,0,0,1-1.6-2.45c.21-2.17,3-4.39,3.79-4.64a4.06,4.06,0,0,1,1.57.1,130.64,130.64,0,0,1,17.9-6.92,4.5,4.5,0,0,1,3.31,1.27c1.58,2.69,7,22.05,9.24,29.11a3.64,3.64,0,0,1-2.78,3.39,4.54,4.54,0,0,1-4-.72c-.88-2.76-5.92-21.13-7.69-25.4-3.8,1.24-11.39,4-12.61,4.84,1,3.63,6.55,20.66,7.81,24.7a4.8,4.8,0,0,1-3.15,3.25,3.34,3.34,0,0,1-3.59-.89C1679.4,875.14,1673.54,855,1672.34,851.66Zm34.32,1.93c-3.39-10.75,2.63-19.46,11.09-22.13,9.17-2.9,17.64,1.46,20.71,11.15,3.74,11.84-3.83,20.08-12,22.67S1709.8,863.5,1706.66,853.59Zm25-8.84c-2-6.49-7.24-8.42-11.76-7-5.09,1.61-9,6.47-6.67,13.83,2,6.45,6.57,8.58,11.4,7.06C1728.48,857.44,1734.44,853.39,1731.7,844.75Zm15.9,2.07a35.67,35.67,0,0,0-2.58-17.17c-2.11.5-4.15-.57-4.65-2a8,8,0,0,1-.09-2.93c4.6-2.2,14.36-6.25,18.65-7.77a4.07,4.07,0,0,1,3.75,1.09c3.34,7.18,7.43,21.43,10.47,29.43a4.21,4.21,0,0,1-2.93,3.45,3.56,3.56,0,0,1-4.1-1c-1.42-4.28-6.06-19.76-8.15-25.51-2.48.87-5.29,1.9-6.8,2.59,1.28,3.89,3.86,11.95,3.52,19.28-.23,4.44-1.75,10.08-3.79,11.53-3.23.63-4.7-.43-5.86-3.63A20.7,20.7,0,0,0,1747.6,846.82Zm31.12-28a71,71,0,0,1-8.18,3.93c-1.69-1.37-2.87-3.25-2.8-5,3.09-2.77,18.6-9.84,23-11.37,1.7.83,2.46,3.19,2,5.26-1.63,1.34-4,2.41-7.8,4.19l8.9,25.06c-1.28,2.38-3.36,3.82-5.81,3.2C1786.31,841,1780.76,825.29,1778.72,818.79ZM1800.31,839c-.84-1.41-.06-18.66,1.08-28.14,0,0-.12-.05-.13-.1a22.42,22.42,0,0,1-1.81-1.8c.2-2.61.9-4.36,3.14-5.35,5.72-.36,22.63,20.44,25.23,23.67-.12,1.85-2.5,4.64-4.39,5-1.83-1.74-3.41-3.57-4.65-4.89l-.06-.17c-3.56,1.79-8,3.89-11.68,5.73a42.4,42.4,0,0,0-.26,4.53,2.84,2.84,0,0,1-2.11,2.16,5.48,5.48,0,0,1-3.84-.1Zm14-17a94.14,94.14,0,0,0-6.72-7.14c-.07.91-.06,2.17-.63,11Zm14.16-6.12a2.65,2.65,0,0,1-2-2,3.47,3.47,0,0,1,0-2.79c-1.19-3-1.57-4-2.28-6a5.59,5.59,0,0,1-3.15-3.4c2.62-4.48,6.52-7.62,13.13-10,5.45-2,10.81-2.33,12.1,1.22s.21,6.48-1.93,9.47c4-.68,7.21-.38,8.63,3.51,3.58,9.81-6.34,18.18-15.91,21.87-1.52.55-2.85-.43-4.28-2.06C1831.4,822.67,1830.17,819.84,1828.51,815.84Zm11.61-18.93c-.21-.56-2-.26-3.65.35a22.5,22.5,0,0,0-6.27,3.61c.2,1,1.61,4.27,2.17,5.68C1838.08,803.14,1841.17,799.81,1840.12,796.91Zm6.65,12.07c-.41-1.13-1.78-1.66-4.28-.74s-6.24,3.3-7.49,4.84a62.35,62.35,0,0,0,3,7C1842.3,817.91,1848.27,813.08,1846.77,809Zm12.68,8.73c-.87-1.39-.42-18.66.53-28.15,0,0-.12-.06-.13-.1a21.45,21.45,0,0,1-1.85-1.77c.15-2.61.81-4.38,3-5.41,5.72-.47,23,20,25.7,23.17-.09,1.85-2.41,4.69-4.29,5-1.87-1.7-3.48-3.51-4.75-4.8l-.06-.17c-3.53,1.87-7.92,4.05-11.57,6a37.81,37.81,0,0,0-.16,4.53,2.86,2.86,0,0,1-2.08,2.2,5.46,5.46,0,0,1-3.84,0Zm13.7-17.28a93.06,93.06,0,0,0-6.85-7c-.06.91,0,2.17-.42,11.07Zm27.34-4.34c2.22-5.85,12.06-19.39,10.69-22.91-.73-1.88-2.38-2.58-5.34-1.43s-4.73,5.1-5.36,9.59a5.21,5.21,0,0,1-5.93-.8c.67-7.92,4.23-12.61,9.72-14.74,6.3-2.45,11.28-1.07,13.41,4.41,2.3,5.92-4.47,15.56-8.77,22.91,4.43-1.82,8.91-4,13.33-6.22a6.55,6.55,0,0,1,2,2.46,5.67,5.67,0,0,1-.21,4c-3.74,1.8-9.51,4.49-14,6.22a41.27,41.27,0,0,1-5,1.64A6.08,6.08,0,0,1,1900.49,796.09Zm24-18.22c-3.68-9.28-2.88-19.1,7.38-23.17,6.41-2.55,13.51,0,16.76,8.19,4.84,12.19,3,21.47-7.23,25.54C1935.07,790.94,1928,786.76,1924.49,777.87Zm18.08-11.68c-1.9-4.79-4.85-7-8.53-5.52-5,2-5.66,8.18-3.11,14.59,2.73,6.89,6.41,7.8,9,6.77C1944.91,780.06,1945.59,773.8,1942.57,766.19Zm15,7.44c2.14-5.88,11.8-19.55,10.38-23-.75-1.88-2.41-2.55-5.36-1.36s-4.66,5.16-5.23,9.66a5.21,5.21,0,0,1-5.94-.73c.57-7.92,4.06-12.65,9.52-14.86,6.27-2.53,11.26-1.22,13.47,4.24,2.38,5.88-4.26,15.61-8.46,23,4.4-1.88,8.85-4.12,13.24-6.39a6.51,6.51,0,0,1,2.07,2.43,5.73,5.73,0,0,1-.15,4c-3.72,1.85-9.45,4.61-13.89,6.4a43.06,43.06,0,0,1-5,1.71A6.09,6.09,0,0,1,1957.58,773.63Zm28.28-9.77c1.41-.92,3.54-2,4.89-2.75-.47-1.39-1.7-4.27-7-17.71a19.83,19.83,0,0,1-3,2.48c-1.76-.42-3.75-2.74-3.86-3.74.26-1.3,5.42-7.39,6.21-8a3.43,3.43,0,0,1,4.43.37c1.1,3.78,3.63,10.2,5.6,15,1.46,3.58,2.47,6,3.71,8.82,1.49-.61,2.74-1.07,3.5-1.39a3.66,3.66,0,0,1,2.37,2,4.58,4.58,0,0,1-.66,4.1c-1.54.48-3.09,1.06-4.71,1.73-2.72,1.11-5.69,2.48-8.09,3.55-1.29.48-2.61-.56-3.19-2A4.72,4.72,0,0,1,1985.86,763.86Z" style="fill: #3799ce"/>
      <g>
        <path d="M1352.77,469.91c2.49-.5,3.12-2.35,4.13-3.65,10.85-14.05,21.46-28.28,32.82-41.93,6.14-7.38,12.4-14.66,19.57-21.09a36.07,36.07,0,0,1,8.15-5.86,6.9,6.9,0,0,1,6-.44,50.6,50.6,0,0,1,11.71,6.49,9,9,0,0,1,3.72,8.27c-.67,10.86-2.06,21.65-3.33,32.44-3,25.24-7.52,50.29-8.84,75.72-.17,3.27-1.93,5.39-4.33,7.06-5.15,3.6-10.94,4.29-17,3-3.64-.78-5.64-3.47-6.82-6.8a39.57,39.57,0,0,1-2-12.26c-.31-11.57,1.41-23,3.24-34.33.93-5.84,2-11.66,2.91-17.5.16-.92.45-2-.64-2.51s-1.73.38-2.33,1.08c-.84,1-1.6,2-2.4,3-13.07,16.57-26.21,33.1-40.37,48.78a159.67,159.67,0,0,1-12.56,12.53c-2.92,2.57-5.75,3.28-9.61,1.89-4.7-1.69-9.31-3.22-13-6.77a8.55,8.55,0,0,1-3-7.6c1.14-11.62,1.94-23.27,3.2-34.87,2.26-20.82,4.75-41.62,7.15-62.42.62-5.4,1.49-10.79,1.82-16.2.18-3,1.69-4.64,4.06-5.93,6.21-3.4,12.88-3.53,19.62-2.62,6.37.87,6.33,1,5.92,7.55-1.38,22-4.22,43.92-6.87,65.83C1353.39,463.71,1353.11,466.69,1352.77,469.91ZM1267,462.55a4.08,4.08,0,0,0-3-.65c-12.63.14-25.26.35-37.88,1-4.21.22-4.39.2-4.74,4.63-.86,11-1.54,22-2.29,33-.47,6.87-3.56,10.63-10.21,12a19,19,0,0,1-14.33-2.29c-3.2-2-4.94-4.69-4.64-8.76.91-12.28,1.57-24.57,2.38-36.86a11,11,0,0,0-.76-5.57,18,18,0,0,1,1.3-17.84,13.1,13.1,0,0,0,2-6.72c.61-12.94,1.52-25.86,1.93-38.81.27-8.47,4.7-12.22,11.57-14.49a24.84,24.84,0,0,1,11.86-.65c4.95.8,5.8,1.74,6.42,6.79a104,104,0,0,1,.49,18.68c-.5,8.61-1,17.23-1.44,25.86-.15,3.08-.06,3.2,3.1,3.21q18.24.09,36.47,0c3.33,0,3.33-.14,3.59-3.47.9-11.47,2-22.94,2.64-34.43a11.43,11.43,0,0,1,6.48-9.92c6.18-3.33,12.34-2.88,18.09,1.18a10,10,0,0,1,4.56,8.89c-.06,19.22-1.73,38.34-3.2,57.47-1.32,17.06-3,34.09-4.26,51.15-.4,5.35-3.18,8.59-7.81,10.44a17.13,17.13,0,0,1-15.27-1c-5-2.77-7.7-6.7-6.91-12.93,1.43-11.26,2.36-22.58,3.47-33.88C1266.79,466.52,1266.87,464.45,1267,462.55Zm-210.19-6.75c1.63-27.17,3.26-53.35,4.69-79.53.18-3.47,1.46-5.74,4.35-7.35,7.41-4.12,15.32-4,23.35-2.72,2,.3,1.87,1.92,1.88,3.35q.11,9.84-.32,19.67-1.17,26.36-3.09,52.68c-.11,1.47-1,3.66.8,4.31,2.14.76,2.69-1.76,3.58-3,10.78-15.68,21.3-31.55,32.82-46.71a163.33,163.33,0,0,1,16.22-18.93c7.89-7.64,10.41-8,20.19-3.12,1,.5,2,1.06,3,1.61,4.09,2.28,6.09,5.41,6,10.45-.34,14.72-1.53,29.38-2.5,44.06-1.4,21.06-4,42-3.62,63.2.07,3.43-1.79,5.76-4.26,7.64-5,3.8-10.75,4.75-16.83,3.69-3.29-.58-5.26-2.87-6.61-5.75a35.23,35.23,0,0,1-2.93-13,201.16,201.16,0,0,1,1.39-34.95q1-8.82,2-17.64c.08-.76.24-1.63-.66-2.08s-1.46.27-1.93.87c-.87,1.15-1.69,2.33-2.52,3.51-12.61,17.91-25.23,35.83-39.13,52.79a133.26,133.26,0,0,1-11,12.05,8.17,8.17,0,0,1-8.7,2.14c-5.12-1.44-10.13-2.78-14.2-6.52a8.24,8.24,0,0,1-2.93-6.64C1055.69,478.13,1056.66,466.48,1056.81,455.8Zm-35.59,12c3.66,0,6.85.06,10,0a6.45,6.45,0,0,1,5.42,2.49c3,3.52,4.84,7.31,4.46,12.2q-1.14,14.58-1.62,29.22a7.54,7.54,0,0,1-3.81,6.64c-5.92,3.83-12.52,4.52-19.34,4.39-1.89,0-2.31-1.48-2.88-2.75-1.91-4.31-2.38-8.94-2.76-13.56-.17-2.07-.08-4.16-.12-6.24-.07-3.79-.07-3.81-4.05-3.68-3,.1-6.07.23-9.11.39l-85.27,4.67c-4.95.27-10,.12-14.84,1-10.11,1.72-19.48-8.32-19.33-17.94.1-6.24-.13-12.48-.13-18.72,0-19-.14-38.07,1-57.08.76-12.3,1.82-24.56,3.77-36.73.37-2.25,1.15-3.45,3.44-3.76,7-.95,13.76-.6,20.15,2.56,4.93,2.44,5.89,4.45,5.35,9.9-2.91,29.32-3.66,58.73-3.83,88.17,0,4,.05,4.05,3.8,3.88,7-.33,14.06-.81,21.09-1,2.37-.07,3.44-.74,3.45-3.27,0-5.91.32-11.83.37-17.74.16-19.2.24-38.39.41-57.59,0-3.36.6-6.72.41-10.06-.29-5,2.44-7.66,6.58-9.43a31.8,31.8,0,0,1,14.58-2.23c8.37.48,6.76.07,7.17,7.26,1.63,28.46.46,56.92-.19,85.38-.15,6.66-.16,6.65,6.43,6.51,5.43-.12,10.87-.11,16.3-.59,2.56-.22,3.52-1,3.64-3.71.48-10.39.34-20.79.43-31.18.14-18.56-.2-37.11.87-55.65.38-6.44,2.64-9.56,8.81-11.46a24.1,24.1,0,0,1,14.17-.14,5.42,5.42,0,0,1,4.33,4.41c1.73,7.38,2.14,14.89,2.39,22.39.7,21.91,0,43.81-1.24,65.7C1021.44,462.55,1021.36,464.78,1021.22,467.78ZM840,420.67c-2.35-.83-4.76-1.48-7.72-2.38,1.77-1.81,3.19-3.24,4.59-4.7a35.3,35.3,0,0,0,10.18-21.7c.75-8-2.31-14-9.33-17.94a39.27,39.27,0,0,0-12.17-4.25c-15.67-2.92-31.2-1.78-46.63,1.7a77.47,77.47,0,0,0-32,15.63,6.13,6.13,0,0,0-2.5,6.58,22.34,22.34,0,0,0,5.13,11.18,6.82,6.82,0,0,1,2,4.66c.15,5.27.48,10.54.79,15.81a12.88,12.88,0,0,1-1.23,6.4c-2.75,6-2.84,12.13,2,17.4a6,6,0,0,1,1.38,3.89c1.08,11,2,22,3.34,32.93a25.15,25.15,0,0,0,4.73,11.34,12,12,0,0,0,11.49,5.5,139.1,139.1,0,0,0,32.93-6.07c12.62-4,24.37-9.66,34.06-18.93,10-9.54,15.23-21.17,15-35.08C855.8,431.44,850.66,424.4,840,420.67Zm-58.72-5.2c-.35-4.45-.49-8.91-.93-13.35-.27-2.61.93-3.69,3.23-4.36a86.11,86.11,0,0,1,23.27-4c2.58.1,5-.07,7.33.56,3,.8,3.3,1.33,2.49,4.39a13.7,13.7,0,0,1-4.09,6.33,35.27,35.27,0,0,1-9.12,6.06,92.9,92.9,0,0,1-18.89,6.63C781.78,418.44,781.53,418.22,781.31,415.47Zm45.35,33.36a15.13,15.13,0,0,1-3.39,6.77,29.24,29.24,0,0,1-4.06,4c-9.66,7.54-20.92,11.18-33,13.64a162.5,162.5,0,0,1-2.48-23.62,3,3,0,0,1,2.2-3.22c10.44-4.2,21.17-7,32.55-6.53a13.64,13.64,0,0,1,3.72.78C826.35,442.12,827.63,444.53,826.66,448.83Zm-87.17,37.75c-2.32-4.91-4.6-9.85-7-14.74-11.28-23.33-23-46.39-37.37-68a123.12,123.12,0,0,0-13.56-17.38,33.67,33.67,0,0,0-8.2-6.58,8.87,8.87,0,0,0-7.36-.66c-5.93,1.9-9.56,6.08-12.33,11.37-2,3.8-2.7,7.42.43,11,2.28,2.59,2,5.23.83,8.35-8.86,23.48-16.52,47.36-23.25,71.54a175.72,175.72,0,0,0-4.77,21c-.29,1.94-.43,3.77,1.29,5.28,4.63,4.08,9.87,6.64,16.14,6,5.5-.57,9.67-3.07,11.11-9,.83-3.41,2.07-6.72,3-10.11.61-2.29,1.9-3.34,4.25-3.8,13-2.58,26-5.19,39-8.09,2.88-.65,4,.24,5.14,2.56,2.91,5.69,6.09,11.23,9.15,16.85.82,1.5,1.8,2.67,3.55,2.28,6.92.05,18-7.59,20.4-13.76A4.83,4.83,0,0,0,739.49,486.58Zm-73-21.68c3.83-12.13,7.37-23.32,11.2-35.43,5.8,9.65,10.46,18.91,15.29,28.88ZM557.4,420.6c-2.5-.32-4.52.82-6.62,1.45-7.35,2.21-14.72,4.26-22.26,5.79a4.14,4.14,0,0,1-4.84-1.85c-3.25-4.48-5.62-9.3-6.11-14.89-.43-5,.16-6.08,4.74-8.1,9.09-4,18.6-6.77,28.12-9.5,18.59-5.34,37.35-10,56.33-13.7,6.35-1.24,9,.3,11.06,6.51a22.13,22.13,0,0,1-.14,13.68c-.68,2.34-2.44,3.24-4.36,4.07-6.77,2.95-13.9,4.72-21,6.56-1.09.28-2.16.61-3.26.8-2.47.43-3.31,1.6-2.87,4.26,1.91,11.51,3.59,23.06,5.38,34.59q4.41,28.43,8.86,56.84c.19,1.27.46,2.53-.51,3.65-5.25,6.12-11.41,10.29-20,9.17-5.05-.67-5.85-1.38-7-6.27-2.84-11.81-4.84-23.8-6.81-35.78-3-18-5.74-36-8-54.08A31.66,31.66,0,0,0,557.4,420.6ZM426.63,552.31c-9.47-.15-16.4-6.53-17.77-16.26a4.24,4.24,0,0,1,.87-3.09q1.81-2.84,3.54-5.71c6-10,8.66-20.89,9.59-32.33a138.82,138.82,0,0,0-4.05-45.65c-.64-2.51-1.51-3.84-4.39-3.85a14.23,14.23,0,0,1-7.62-2.61c-4.06-2.63-6.34-6.22-6.21-11.17,0-.8.05-1.6.1-2.4.44-6.6.44-6.61,6.55-8.72,21.13-7.32,42.54-13.77,64.07-19.84,5.06-1.43,9.73-1.28,14.31,1.38a12.29,12.29,0,0,1,5.73,7.32c4.88,15.23,8.61,30.76,12.26,46.31,4.82,20.52,9.08,41.18,14.52,61.56a9.73,9.73,0,0,1-1.38,8.18c-4.28,6.8-14.07,10.2-21.53,7.35a10.57,10.57,0,0,1-7.19-8.21c-4.61-22.38-9.39-44.72-14.17-67.06-1.64-7.65-3.38-15.28-5.17-22.9-.87-3.67-1-3.72-4.37-2.86q-8.13,2.08-16.19,4.37c-3.49,1-3.56,1.1-2.77,4.61a285.24,285.24,0,0,1,5.09,29.75c2.4,20.4,1.93,40.54-5.33,60.08-2.29,6.15-4.84,12.19-9.06,17.34C432.84,551.83,431.54,552.39,426.63,552.31Zm-58.63-84c-11.24-13.52-26.2-20-43.84-20.08a63.27,63.27,0,0,0-12.89,1.22c-26.87,5.07-48.68,25.53-52.92,51.7-4.61,28.41,4.79,52.45,26.83,70.94,11.66,9.79,25.76,13.48,40.88,11.37,19.42-2.71,35.05-12.37,47.22-27.64a56.29,56.29,0,0,0,11.37-23.55C389.72,508.28,383.45,486.93,368,468.35Zm-21,74.17a42.27,42.27,0,0,1-23.43,12.18c-8.16,1.33-15.79-.51-21.86-6.14-11.76-10.89-17-24.75-15.39-40.56,1.61-15.39,13.76-27.55,29-30.61,13.06-2.61,23.69,1.61,31.71,12,6.52,8.47,9.53,18.32,9.84,25.57C357.05,527.86,353.65,535.88,347,542.52Zm-83,56c-.28,9.69-10,17.07-19.76,15.71a9.68,9.68,0,0,1-7.83-5.35c-13.39-24-26.51-48.14-40.67-71.7-1.49-2.47-3.09-4.86-4.52-7.35-1-1.82-2.11-1.88-3.84-.78-11.21,7.08-22.47,14.11-33.13,22-4.8,3.57-4,2.88-1.49,7.07C167.41,582.92,182,607.69,197,632.25c2.86,4.68,2.52,8.64.23,13a18.37,18.37,0,0,1-10.14,9c-5.9,2.15-11.63.44-15.07-4.8-8.67-13.24-16.45-27-24.45-40.67q-11.28-19.21-22.49-38.49c-1.3-2.22-2.59-4.42-5-5.65a2.18,2.18,0,0,1-.38-.3c-6.12-5.87-6.86-7.13-4-15.53a33.2,33.2,0,0,1,5-8.7c2.08-2.82,4.64-4.92,8.27-5.08,2.15-.1,3.5-1.42,5-2.59a495.93,495.93,0,0,1,53.12-36.06c7.76-4.59,15.89-3,20.93,4.38,9.14,13.32,17,27.42,25.1,41.39,9.66,16.74,19.22,33.55,28.87,50.3C263.23,594.57,264.35,596.64,264,598.56Z" style="fill: #545f41"/>
        <path d="M1409.05,440.14c-1.43,1.87-2.89,3.72-4.3,5.6-14.77,19.72-29.66,39.35-45.66,58.1a177.08,177.08,0,0,1-13.81,14.66c-2.31,2.15-4.53,3-7.74,1.83-3.77-1.36-7.59-2.44-10.72-5.14a6.69,6.69,0,0,1-2.58-5.81c.53-13.75,1.79-27.44,3.06-41.13,1.44-15.6,3-31.19,4.51-46.79.81-8.27,1.72-16.53,2.42-24.81a4.94,4.94,0,0,1,3-4.43c5.85-2.89,12-3.16,18.26-2,1.69.31,1.94,1.36,1.89,2.76-.15,3.84-.18,7.68-.45,11.51-1.72,23.76-4.36,47.43-6.78,71.13-.15,1.42-.12,2.86-.18,4.63,2.28-.51,3-2.39,4-3.76,9.9-13.17,19.69-26.42,29.59-39.59a352.16,352.16,0,0,1,22.54-27.42,66.88,66.88,0,0,1,11.47-10.17,5.65,5.65,0,0,1,6.25-.58,79.56,79.56,0,0,1,8.86,4.77,6.76,6.76,0,0,1,3.3,6.87c-.94,9.87-1.62,19.76-2.61,29.62-2.58,25.76-6.69,51.37-7.71,77.29a6.38,6.38,0,0,1-2.88,5.2,17.51,17.51,0,0,1-13.67,3c-3-.48-4.64-2.64-5.51-5.39a48.2,48.2,0,0,1-1.89-15.15c.18-15.25,2.84-30.22,5-45.24q1.42-9.63,2.84-19.26Zm-161.06-3c-7.19.13-14.38.31-21.57.35-3.47,0-3.48-.11-3.3-3.49.64-11.66,1.29-23.31,1.12-35-.06-4-.38-8-.76-12-.14-1.55-.58-3.06-2.61-3.54a21,21,0,0,0-15.7,2.33c-4.51,2.51-4.84,6.76-5.09,11.14,0,.32,0,.64,0,1-.43,12.78-.9,25.56-1.25,38.34a11.6,11.6,0,0,1-1.94,6.2c-3.08,4.87-4,10.19-.9,15.41,1.26,2.15,1.19,4.24,1.08,6.45-.59,11.82-1.23,23.63-1.83,35.44-.27,5.37,1.26,7.55,6.44,9a15.87,15.87,0,0,0,8.51.37c5.57-1.44,7.65-4,7.89-9.82.26-6.55.47-13.1.82-19.65.31-5.58.84-11.15,1.14-16.73.13-2.34,1.07-3.31,3.47-3.55,15.14-1.5,30.35-1.19,45.51-2.17,2.34-.15,3,.71,2.84,3.05-1.18,13.86-2.1,27.73-3.42,41.57a8.22,8.22,0,0,0,3.3,7.91,14.5,14.5,0,0,0,9.84,3.15c5.94-.2,10.17-3.67,10.49-8.5.8-11.8,1.51-23.61,2.25-35.41.92-14.68,2-29.35,2.71-44,.48-9.74.39-19.5.7-29.24.1-3.14-1.36-5.12-3.76-6.73a13.26,13.26,0,0,0-7.21-2.33c-5.38-.11-12,3.39-12.09,10.75-.09,12.13-1.33,24.25-1.93,36.38-.12,2.32-.93,3-3.14,3-7.19,0-14.38.22-21.57.34ZM1085.3,451c1.14-23.47,2.49-46.94,2.7-70.44,0-3.2-.08-6.4-.12-9.6,0-1.47-.57-2.46-2.2-2.54-5.46-.3-10.85-.3-16,2-3.05,1.35-4.75,3.15-4.85,6.82-.35,12.62-1.06,25.23-1.6,37.85-.62,14.69-1.31,29.39-1.76,44.09-.29,9.9-.14,19.82-.35,29.73a7,7,0,0,0,3.1,6.06c3.27,2.57,7.17,3.3,11,4.42,3.09.91,5.13.06,7.21-2.08a147.35,147.35,0,0,0,11-12.72c16.3-21,31-43.06,45.81-65.11.94-1.4,1.64-3.05,3.43-4.25-1.41,16.31-2.89,32.2-4.11,48.11-.72,9.58-.92,19.2,1.41,28.63,2.07,8.36,6.29,10.53,14.59,7.92a17.14,17.14,0,0,0,5.53-2.78,7,7,0,0,0,2.87-6.19c-.43-17.45,1.09-34.82,2-52.22.85-16,1.82-31.92,2.35-47.89.39-12-1.34-13.93-12.8-17.63a6,6,0,0,0-5.86.81,53.74,53.74,0,0,0-8.4,7.83,241,241,0,0,0-15.91,20.43c-12.07,16.93-23.06,34.58-34.71,51.8-1.14,1.68-2.34,3.32-4.15,5.89C1085.36,456.11,1085.17,453.55,1085.3,451ZM963.9,403.77c-.28-8.94-.77-17.89-1.26-26.83-.19-3.62-.3-3.64-4-3.74A32,32,0,0,0,946.39,375c-4.79,1.81-5.6,3-5.71,8.1-.36,16.63-.23,33.26.07,49.89.22,12.15.24,24.31.27,36.46,0,4.55-.83,4.12-3.94,4.32-8.93.56-17.85,1.35-26.79,2-3.74.25-3.88.12-4-3.5-.12-5,.07-9.91,0-14.87-.32-16.31,0-32.62.61-48.92.34-9.74.53-19.51,1.82-29.19.36-2.7-.71-4.23-2.84-5.44a26.47,26.47,0,0,0-12-3.07c-7.32-.42-8.06.33-8.88,7.54a478.75,478.75,0,0,0-2.77,56c.06,16.15.52,32.3.82,48.45.13,6.54,2.56,11.66,8.54,15,3.26,1.84,6.5,1.29,9.79,1.06q25.37-1.75,50.71-3.66c7.66-.56,15.3-1.19,23-1.76,12.59-.94,25.19-1.83,37.79-2.8,2-.15,3,.33,3,2.53a55.36,55.36,0,0,0,.1,5.76c.35,5.26.7,10.52,2.29,15.61a3.26,3.26,0,0,0,3.85,2.65,31.4,31.4,0,0,0,13.32-3.56c2.25-1.25,3.59-2.87,3.45-5.72-.18-3.51.06-7,.18-10.55.2-6.24.5-12.47.65-18.7.16-6.74-3.51-10.48-10.06-10.39-2.08,0-4.15.1-6.23.09-3.59,0-3.66,0-3.59-3.73.22-11.35.5-22.7.76-34.05.42-18.4.3-36.78-2.2-55.06-.92-6.72-2.59-8.12-9.38-7.74a24.6,24.6,0,0,0-5.64,1c-5.35,1.6-6.84,3.67-7,9.31-.42,18.07-.31,36.14,0,54.21.22,11,.23,22.07.25,33.11,0,4.95-.08,5-4.8,5.64-8.11,1.05-16.28.88-24.43,1.12-3.7.11-3.71,0-3.68-3.66.11-15,.24-30.06.38-47.95C964.43,416.88,964.11,410.32,963.9,403.77Zm-128.25,5.64c5.41-6.08,8.51-13,8.54-21.28a13.38,13.38,0,0,0-6.91-12.29,35.25,35.25,0,0,0-13.06-4.49c-12.62-2-25.19-1.16-37.68,1a76.67,76.67,0,0,0-33.27,14c-6.36,4.76-6.83,7.08-2.56,13.82a9.84,9.84,0,0,0,2.06,2.62c2,1.53,2.47,3.58,2.59,5.89.33,5.74.57,11.5,1.12,17.22a10.44,10.44,0,0,1-1.32,6.78c-2.62,4.48-2,10.93,1.41,13.75a6.5,6.5,0,0,1,2.36,4.9c1,8.89,1.93,17.79,3,26.67.71,5.84,1,11.78,5,16.71,2.39,2.95,5.06,4.63,9,4.32a134,134,0,0,0,21.74-3.5c13.93-3.44,27.08-8.66,38.38-17.8,11-8.9,17.65-20.16,17.92-34.56.22-11.42-3.84-17.42-13.8-21a33.12,33.12,0,0,0-4.62-1.24c-3.26-.67-6.53-1.25-10.56-2C829.1,415.44,832.67,412.75,835.65,409.41Zm-10.3,27.23c4.34,1.71,6.21,4.61,6,9.25-.17,4.34-2.08,8-4.78,11.23a33.41,33.41,0,0,1-7.16,6.31c-9.41,6.32-19.86,10-30.89,12.26-3.19.65-3.21.52-3.86-2.81-1.54-7.84-2-15.81-2.94-23.72-.36-3,.61-4.73,3.33-6A93.48,93.48,0,0,1,815,435.41C818.19,435.27,821.86,435.26,825.35,436.64Zm-8.24-46.12c3.16,1.11,4.08,2.49,3.62,5.77a16.31,16.31,0,0,1-4,8.56,31,31,0,0,1-7.78,6.31c-8.34,4.92-17.47,7.74-26.78,10.11-1.77.45-2.74.26-2.88-1.78-.45-6.7-.91-13.39-1.49-20.07-.23-2.54.88-3.68,3.17-4.51a82.14,82.14,0,0,1,26.3-5.23C810.48,389.77,813.86,389.37,817.11,390.52ZM633.92,506.44a19,19,0,0,0,10.59,4c5.21.25,8.62-2.42,10.12-7.57,1-3.53,2.16-7,3-10.61.71-3.08,2.53-4.33,5.54-5,13.57-2.94,27.11-6.09,40.65-9.18,4.71-1.07,4.67-1.08,7,3.07,3,5.45,6.16,10.83,9.09,16.33,1.17,2.19,2.61,2.41,4.72,1.66a29.4,29.4,0,0,0,12.12-8.31c1.95-2.17,2.16-4.15.8-6.88-8.68-17.46-17.5-34.84-27.25-51.73-7.43-12.88-15.12-25.6-24.44-37.24a62,62,0,0,0-10.68-11c-4.83-3.66-8.19-3.66-12.93.08a21,21,0,0,0-4.73,6c-2.2,3.64-2.74,7.19.47,10.45,2.7,2.75,2.06,5.48.93,8.71-9.76,27.73-18.48,55.78-25,84.47a52,52,0,0,0-1.55,9.75C632.05,504.67,632.83,505.62,633.92,506.44Zm65-47.06-35.63,9.32c4.8-16.21,9.3-31.41,14.17-47.84A368.28,368.28,0,0,1,699,459.38ZM561.74,420.52c3.07,22.15,6.89,44.18,11.08,66.15,1.58,8.31,3.47,16.56,5.37,24.81.83,3.61,1.61,4,5.27,4.29,6.14.44,10.69-2.54,14.73-6.71a4.13,4.13,0,0,0,.93-4c-.56-3.3-1-6.62-1.62-9.93q-6.79-39.42-13.61-78.84c-1.27-7.43-1.17-7.39,5.9-9.4s14.51-3.85,21.42-6.87c1.62-.71,3.31-1.29,3.84-3.26,1.16-4.31,1.16-8.53-.91-12.59-1.69-3.32-2.33-3.63-6-2.86a641.88,641.88,0,0,0-65.66,17.6,171.08,171.08,0,0,0-17.94,6.7c-3.3,1.49-3.45,1.87-3.17,5.51.31,3.95,2.12,7.3,4,10.64,1.32,2.28,2.94,3.19,5.52,2.36,1.82-.59,3.72-.93,5.56-1.48,7.94-2.37,15.88-4.77,24.26-7.3C561.14,417.41,561.52,419,561.74,420.52ZM515.43,522.66a7.34,7.34,0,0,0,1.4-7.16c-5.32-18.58-9.58-37.44-14.31-56.18-4.22-16.72-8.46-33.44-13.92-49.83-1.47-4.4-4.38-6.39-8.44-7.55-2.61-.74-5.08-.18-7.53.56-9.78,3-19.6,5.83-29.31,9-11.68,3.84-23.27,8-34.88,12-1.45.51-3.14.72-3.85,2.51a11.82,11.82,0,0,0,5,14.2,15.56,15.56,0,0,0,7.35,1.93c4,.16,4,.12,5.07,3.79a138.89,138.89,0,0,1,5.46,51.19c-1,12-4.14,23.24-10.41,33.57a26.27,26.27,0,0,1-1.48,2.46,4.31,4.31,0,0,0-.45,4.53,26,26,0,0,0,3,6c2.8,3.88,6.81,4.87,11.32,5.13,4.12.24,5.93-2.52,7.88-5.27a51.6,51.6,0,0,0,5.27-10.2c8-19.52,8.63-39.8,6.22-60.37a278.71,278.71,0,0,0-6.54-34.84c-.92-3.72-.9-3.87,2.92-5,7.33-2.23,14.7-4.34,22.08-6.41,3.11-.88,3.28-.75,4.18,2.67,1.47,5.56,2.91,11.13,4.21,16.73,5.77,24.89,11.47,49.81,17.26,74.7,1.38,6,4,8,10.08,7.91A15.14,15.14,0,0,0,515.43,522.66Zm-231,42.61c12.52,11.38,27.2,16.36,44.16,13.76,12.86-2,23.94-7.79,33.69-16.17,10.87-9.34,18.32-20.86,21-35.13,3.31-17.87-.91-34.34-10.14-49.57-14-23.15-38.29-32.64-64.44-25.64-28.63,7.66-47.71,32.14-47.25,60.63C261.71,532.32,270.51,552.62,284.43,565.27Zm16.41-15.4c-12.69-11.71-18.28-26.54-16.64-43.54,1.53-15.91,14-28.91,30.15-32.83,13.06-3.18,24.56-.07,33.6,9.86,10.31,11.34,14.92,25,12.79,40.21-2,13.95-10.95,23-23.1,29.25a35.45,35.45,0,0,1-16,4.21C313.37,557.37,306.46,555.05,300.84,549.87Zm-49.76,58.7c9.8-1.6,13.82-10.35,8.75-18.78C251.5,576,243.3,562.05,235,548.2c-9.47-15.76-18.69-31.67-29.23-46.76-4.32-6.19-10.68-7.43-17.07-3.48a484.93,484.93,0,0,0-52.11,36.73c-2,1.61-3.79,3.31-6.68,3.35-2.12,0-3.8,1.4-5.17,3.1a33.9,33.9,0,0,0-4.89,8.22c-2.45,5.92-1.71,9,3.63,12.74a18.73,18.73,0,0,1,5.36,6q10.08,16.6,20.21,33.18c9.06,14.89,18.09,29.78,27.47,44.48,3.29,5.14,8.75,6.26,13.65,3.64a15.84,15.84,0,0,0,6.64-6.75c1.81-3.44,2.06-6.61-.31-10.27-8.33-12.89-16.32-26-24.4-39q-11.49-18.55-22.88-37.17c-1.89-3.07-1.82-3.12.77-5.57.47-.44,1-.86,1.46-1.26,11.86-9.26,24.47-17.43,37.07-25.64,1.88-1.22,3.14-1,4.34.83,2.14,3.38,4.42,6.66,6.54,10,14.31,22.93,27.66,46.42,41.2,69.8,2,3.4,4.34,4.88,8.11,4.49C249.49,608.75,250.29,608.7,251.08,608.57Z" style="fill: #d6ebd3"/>
      </g>
      <g>
        <path d="M1447.38,333.29c-4.31-17.52-8.71-35-14.11-52.24-4.68-14.94-9.48-29.84-16.69-43.81a48.05,48.05,0,0,0-8.77-12.5,9.41,9.41,0,0,0-9.19-2.58c-5.18,1.06-8.84,4.13-12,8.11-2.49,3.09-3.78,6.2-1.63,10,1.59,2.82.85,5.2-.86,7.93q-19,30.24-35.21,62.09a139.37,139.37,0,0,0-7.82,17.47c-.62,1.8-1.21,3.64.25,5.45,3.2,4,7,7.14,12,8.15,4.77.95,11,.43,14-6.4,1.22-2.77,3-5.31,4.25-8,1-2.19,2.55-2.87,4.91-2.85,12.15.09,24.3,0,36.45.05,3.62,0,3.59.07,4.73,3.83,1.58,5.19,3.11,10.4,4.83,15.55,1.25,3.77,1.76,4,6.07,4.08a28.43,28.43,0,0,0,16.4-6.77A6.66,6.66,0,0,0,1447.38,333.29Zm-62.49-32.68L1401,271.74l1,.14c1.58,5.19,3.21,10.37,4.72,15.58,1.1,3.81,2,7.67,3.17,11.92C1401.62,300.49,1393.62,300.3,1384.89,300.61Zm-59.27-37.67c-2.34-1.31-4.84-2.33-7.83-3.75,2.45-2,4.47-3.59,6.37-5.28A31.94,31.94,0,0,0,1334.49,236c1.51-7.26-.79-12.86-6.5-17.29a38.9,38.9,0,0,0-14.28-6.57,111,111,0,0,0-43.73-2.62,72.82,72.82,0,0,0-28.18,10.26,5.65,5.65,0,0,0-3.11,5.8c.16,2.91.08,6.06,1.81,8.31,3.16,4.14,2.78,8.55,2.28,13.16-.32,3-.65,6-.73,9.07a11.39,11.39,0,0,1-1.92,5.7c-3.19,5.4-4,11.12-.23,16.66,1,1.5.95,3,.86,4.55q-.83,14.85-.92,29.71a24.14,24.14,0,0,0,3,11.44c2.05,4,5.22,6.43,9.8,6.62,4.31.19,8.64.44,12.94.28,14.82-.52,29.29-2.85,42.75-9.42,15.44-7.52,25.93-18.95,28.24-36.67C1337.84,275.09,1334.3,267.77,1325.62,262.94Zm-54.15-25.64a2.72,2.72,0,0,1,2.65-2.76c9.18-1.54,18.38-2.13,27.57-.11a13.81,13.81,0,0,1,2.71.94,1.92,1.92,0,0,1,1.1,2.69,12,12,0,0,1-3.74,5.44,29.06,29.06,0,0,1-9.15,5.08,89.17,89.17,0,0,1-21.9,4.48A112.72,112.72,0,0,1,1271.47,237.3Zm34.94,53.1a21.09,21.09,0,0,1-6.84,5.91c-8.92,5.09-18.71,7.12-28.8,8.13-2.34.23-3-.63-3-2.94.1-6.07.28-12.12.76-18.18a3.46,3.46,0,0,1,3-3.6,84.27,84.27,0,0,1,19.4-2.66,43.41,43.41,0,0,1,11,.69C1309.42,279.53,1311,284.07,1306.41,290.4Zm-134.08-88.68c11.26.32,19.88.59,28.5.79,4,.09,8,.57,11.94.89a5.22,5.22,0,0,1,4.92,3.8c1.69,4.51,2,9.07.14,13.56s-5.26,7.46-10.53,7.77a321.52,321.52,0,0,1-32.56.59c-4.94-.22-9.9.16-14.86.2-1.6,0-2.24.71-2.34,2.28-.25,3.83-.67,7.64-.87,11.47-.14,2.77.36,3.29,3.29,3.4,3.52.12,7,.11,10.56,0,10.37-.26,20.76-.43,31.12-1a7.47,7.47,0,0,1,7.21,3.61c4.47,6.52,2.6,17-3.87,21.49a9.29,9.29,0,0,1-5.39,1.69c-6.71.09-13.42.32-20.13.36-7.51,0-15,0-22.54-.14-2.28,0-3.46.37-3.64,3-.39,5.89-1.13,11.76-1.7,17.65-.26,2.69-.6,3.55,3.16,3.51a278.09,278.09,0,0,0,44.81-4.19c9.43-1.64,15.87,4.06,15.16,13.68a34.44,34.44,0,0,1-.72,4.26c-.77,3.88-2.72,6.28-6.88,7.51a149.05,149.05,0,0,1-34.43,5.61c-10.7.58-21.39.3-32.09.18-5.06-.05-8.87-2.14-12.31-5.41a41.77,41.77,0,0,1-3.14-3.62,11.12,11.12,0,0,1-2.63-9.24c1.35-10.61,2.2-21.29,3.22-31.94a8.85,8.85,0,0,0-.68-5.08,15.62,15.62,0,0,1,.81-15.56,15.39,15.39,0,0,0,2.28-6.67c.51-5.41,1-10.82,1.61-16.21a6,6,0,0,0-1.1-4.49,19.78,19.78,0,0,1-2.25-4.21c-3.33-8.45-2.15-11.51,5.77-15.74,5.14-2.74,10.36-4.35,16.43-4C1157.36,202.11,1166.18,201.72,1172.33,201.72Zm-79,1.81A52.22,52.22,0,0,0,1076,195.7c-13.55-3.45-27.22-3.3-40.89-.92-10.5,1.82-19.81,6.1-27.3,13.89A12.94,12.94,0,0,0,1006.1,225a9.42,9.42,0,0,1,1.66,6.21c-.65,12.77-1.19,25.54-1.77,38.31-.53,13.27-.18,26.55-.41,39.81-.07,3.6,1.62,5.69,4.35,7.34a12.76,12.76,0,0,0,5.94,1.7c5.11.29,9.78-1.22,14.23-3.58a3.5,3.5,0,0,0,2.1-3.43c0-2.24.22-4.47.23-6.71.07-8.8.14-17.59.09-26.39,0-2.36.72-3.37,3.22-3.62a90.7,90.7,0,0,0,11.81-2c14.43-3.37,28.15-8.46,40.24-17.31a47.15,47.15,0,0,0,14-15.54C1109.29,225.91,1106.19,212.57,1093.37,203.53Zm-19.27,30a17.21,17.21,0,0,1-4.56,4.2c-10.71,7.23-22.91,9.82-35.85,11.79.34-5.22.62-10,1-14.69.26-3.5.66-7,.87-10.49.11-1.77.59-3,2.48-3.56,10.61-3.18,21.28-4.19,32-.86C1077.12,222.14,1079.74,225.61,1074.1,233.56ZM941,191.87c8.63-.24,17.26-.59,25.89-.44,7.24.12,9.16,1.81,10.19,9.07a16.4,16.4,0,0,1-.82,8.47c-1.76,4.54-4.83,7.29-9.82,8-11.58,1.65-23.24,2-34.88,2.77-4,.26-8,.68-11.94.9-1.75.1-2.61.67-2.63,2.54,0,4-.19,8-.32,12-.07,2.09.89,2.75,3,2.61,13.23-.93,26.46-1.8,39.66-3.15,2.75-.28,5.65-1.45,8.17,1a14.26,14.26,0,0,1,4.72,10.14,17,17,0,0,1-2.62,10,11.2,11.2,0,0,1-9,5.49c-13.85,1.28-27.73,2.08-41.61,2.76-3.37.17-3.44.17-3.59,3.5-.28,5.9-.49,11.81-.67,17.72-.08,3,0,3.07,3.17,2.89a256.2,256.2,0,0,0,45.42-7c7.53-1.82,13.22,1.78,14.79,9.4a20.72,20.72,0,0,1,.29,5.72c-.39,5.18-2.36,8.68-7.89,10.51a164.27,164.27,0,0,1-31.73,7.11c-11,1.33-22,1.91-33,2.2-7.33.19-16-5.19-18.91-11.81a9.34,9.34,0,0,1-.34-4.26c.4-10.54.83-21.08,1.21-31.61.09-2.37.14-4.65-1.19-6.93-2.89-5-2.54-10.23.07-15.13a16.85,16.85,0,0,0,2-7.73c.13-5.11.3-10.22.64-15.32a5.65,5.65,0,0,0-1.37-4.37,18.77,18.77,0,0,1-2.79-4.44c-3.61-8.08-2.63-11.05,4.87-15.72a30.37,30.37,0,0,1,16.14-5C917.68,193.54,929.32,192.53,941,191.87ZM865.11,318.44a53.49,53.49,0,0,1-.32-8.6c0-7.52-.11-15,0-22.56,0-2.7-.89-4.08-3.51-4.74-4.35-1.1-8.72-2.14-13.22-2-2.24.09-2.68-.76-2.73-2.72-.18-7.19-.54-14.37-.74-21.55-.53-19.34-1.22-38.66-3.06-57.92-.58-6-3.86-9.64-9.17-11.73-2.77-1.09-5.7-.38-8.54-.11-11.77,1.14-23.54,2.27-35.3,3.56a253.11,253.11,0,0,0-25.09,3.94c-1.67.35-3.55.39-4.74,2-3.76,5-4.61,10.57-2.06,16.27,2.22,5,5.23,9.31,11.79,8.45.23,0,.51.34.89.62a335.21,335.21,0,0,1-3,36.68c-1.3,9-3,18-6.51,26.45-1.35,3.24-3.17,5.46-7,5.28a12.51,12.51,0,0,0-3.31.45c-5.89,1.33-6.41,1.91-6.85,7.92a107.58,107.58,0,0,0,2.68,33.78c2.16,8.83,2.08,8.92,10.91,6.82,4.52-1.07,8.89-2.58,12.63-5.53,2.75-2.16,4.06-4.7,3.28-8.33-.66-3.11-.84-6.31-1.29-9.86l65.69-5.86c.12,2.3.15,4.05.31,5.79.47,5.11,1.11,10.2,3.61,14.8.81,1.5,1.58,3.28,3.7,3.36,5,.17,10,.09,14.43-2.56S866.09,324.3,865.11,318.44Zm-49.84-34.3c-8.75.82-17.48,1.76-26.22,2.63-.28,0-.58-.24-1-.44a174.74,174.74,0,0,0,4.81-23.84,340.63,340.63,0,0,0,2.64-41.12c0-5.19,0-5.26,5.33-5.91,3.81-.47,7.63-.75,11.45-1.07,2.94-.25,3.08-.14,3.34,3.09q1.88,23.66,1.9,47.41c0,5.44,0,10.87,0,16.31C817.49,282.78,817.3,284,815.27,284.14ZM592.63,336.31a13.83,13.83,0,0,1-8.74-3.17,9.54,9.54,0,0,1-3.84-6.84c-1.35-14.65-3-29.27-4.48-43.9-1.81-17.49-3.54-35-5.41-52.47-.75-6.92,1-11.12,6.45-14.11s12.59-2.52,17.17,1.23a8.34,8.34,0,0,1,3.12,5.16c2.44,13.06,4,26.25,5.39,39.44,2.13,19.7,3.52,39.5,6.15,59.14C609.88,331.6,601.09,336.85,592.63,336.31ZM548,285.91c-1.38-8.23-6.08-13.56-13.9-16.11-3-1-6.11-1.54-9.8-2.45,1.45-1.84,2.54-3.19,3.6-4.57A32.75,32.75,0,0,0,535.18,241c-.27-7.56-3.84-12.63-10.74-15.49a38.93,38.93,0,0,0-12.58-2.79c-14.56-.87-28.68,1.51-42.43,6.15a74.77,74.77,0,0,0-27.92,17.22,6.51,6.51,0,0,0-1.87,7.7,21,21,0,0,0,5.74,9.26,6.86,6.86,0,0,1,2.34,4.52c.62,4.59,1.33,9.17,2.06,13.74a13.68,13.68,0,0,1-.54,6.51c-1.84,5.78-1.48,11.45,3.29,15.92a7.77,7.77,0,0,1,2.14,4.63c1.89,9.55,3.91,19.08,5.77,28.64a23,23,0,0,0,6,11.25A11.45,11.45,0,0,0,477.7,352a140.91,140.91,0,0,0,19.06-4.66c14.54-4.87,28.14-11.43,38.86-22.81C545.87,313.64,550.49,300.92,548,285.91Zm-71-13.57c-1.57-5.49-1.9-10.61-2.94-15.6-.36-1.74.5-2.57,2-3.23A73.45,73.45,0,0,1,501.93,247c5.46-.27,7.05.7,4.39,6.78-1.31,3-3.75,5.16-6.3,7.11C493.21,266.09,485.45,269.38,477,272.34Zm44.43,24a17.83,17.83,0,0,1-5.73,10.79c-7.71,7.56-17.3,11.84-27.32,15.31-1.8.63-2.62-.16-3-1.93-1.18-6.11-2.45-12.2-3.67-18.29-.3-1.51-.21-2.8,1.38-3.67A77.35,77.35,0,0,1,513,289.1a12,12,0,0,1,4.25.68C520.51,290.93,521.79,292.87,521.4,296.33Zm-95.78-1.2c-4.37-16.58-12.89-30.24-28.19-38.87-12.4-7-25.7-8.13-39.51-5.75-25,4.3-44.92,23-49.67,47.85-3.79,19.78.44,38.33,12.07,54.68,12.79,18,30.54,25.59,52.59,22.31A64.41,64.41,0,0,0,395,367.67c21.06-11.84,32.59-29.56,33-54A70,70,0,0,0,425.62,295.13Zm-52.28,52.28c-14.87,4.11-27.1-1.28-33.81-15.17-4.86-10.07-6.68-20.68-3.86-31.67,5.49-21.39,33.34-31.63,50.4-18.66,5.28,4,8.59,9.39,10.88,15.47,2,5.42,3.1,11.05,3.06,19.48C400,330.38,390,342.79,373.34,347.41ZM225.53,329.48c1.72-1.71,2.6-4,3.75-6,7.36-13.09,14.77-26.15,21.9-39.35,2-3.73,5-5.19,8.79-5.64a19.55,19.55,0,0,1,9,1.18c7.61,2.73,8.58,4.67,6.25,12.35-2.95,9.7-7.8,18.52-12.8,27.26q-3.33,5.83-6.87,11.53c-2.29,3.73-2.27,3.57,1.43,5.61a465.66,465.66,0,0,1,39.95,24.68c4.33,3,8.41,6.37,12.79,9.3,3.88,2.59,4.32,6.14,3.33,10.09-1.72,6.86-7,10.82-12.39,14.68-1.41,1-2.42-.28-3.41-.91-6.62-4.18-13.19-8.44-19.78-12.66q-16.95-10.87-33.91-21.7c-1.13-.72-2.12-2.18-3.75-1.49-1.19.51-3.1,5-2.64,6.3,1,2.71,2.05,5.37,3.13,8,3.48,8.58,6.9,17.19,10.52,25.71a6,6,0,0,1-.84,6.6c-4.42,6-9.58,10.74-17.6,10.91-4.72.1-4.87,0-6.76-4.36-9-20.84-16.89-42.07-24.35-63.49-4-11.61-7.9-23.28-11.06-35.16-1.93-7.23.37-12.16,7.11-15.19,3.87-1.73,8-2.11,12.16-2.27,1.73-.07,2.59.92,3.46,2.11a43.55,43.55,0,0,1,4.66,8.89c2.67,6.35,4.33,13,6.33,19.58C224.25,327.21,224.14,328.63,225.53,329.48Zm-80.05-4c5-.18,8.24,1.83,10.57,6.19,10.18,19,18.86,38.73,27.79,58.34,4.69,10.31,9.2,20.71,14.2,30.87a12.37,12.37,0,0,1-2.68,14.44c-4.52,4.28-10,5.56-16,4.33a9.89,9.89,0,0,1-7.32-6.17c-13.33-29.54-26.48-59.16-40.48-88.37-3.84-8,2.22-18.66,11.75-19.62A19.23,19.23,0,0,1,145.48,325.44Zm-6.81,81.3c-5-8.08-12.3-11.28-21.66-9.81-2.2.35-4.38.81-6.58,1.21-.36.19-.78.38-1.09,0s-.06-.74.26-1c.34-1.23.68-2.46,1-3.69,2.29-8.48,2-16.75-2-24.71-3-5.82-7.67-8.73-14.2-8.94a40.48,40.48,0,0,0-15.93,2.86,112.58,112.58,0,0,0-35.21,21.89,71.93,71.93,0,0,0-17.61,24.26c-2.81,6.29-2.48,7.66,2.82,12.27,1,.83,2,1.95,3.09,2.21,5.51,1.26,7.69,5.74,10.18,10,1.12,1.93,2.31,3.84,3.55,5.7a15.93,15.93,0,0,1,2.81,7.94c.42,5.55,3,10.25,8.4,12.41A9.39,9.39,0,0,1,61,463.23c5.49,8,11.06,16,16.48,24.16a22.28,22.28,0,0,0,8.68,7.32c4.67,2.41,9.08,2.29,13.55-.71a140.44,140.44,0,0,0,21.67-17.35C131,467,139,456.36,143,443.15,146.84,430.43,145.75,418.18,138.67,406.74Zm-60.36,3.5a85,85,0,0,1-11,11c-2.94-4.68-5.62-9-8.36-13.28-.78-1.23-.93-2.25.19-3.4,6.83-7,14.18-13.34,23.45-17a16.74,16.74,0,0,1,1.81-.61c1.32-.33,2.06.25,2.52,1.51,1.23,3.4.46,6.61-.81,9.76A44.2,44.2,0,0,1,78.31,410.24Zm37,31.08c-4.4,8.3-10.58,15.14-17.53,21.37-1.51,1.36-2.56,1.42-3.81-.35-3.61-5.08-7.14-10.2-10.45-15.48-1-1.56-1.13-2.79.09-4.26C90,434.92,97.22,428.2,106,423.37a11.77,11.77,0,0,1,1.29-.62c7-2.88,11.24,0,11.21,8A27.11,27.11,0,0,1,115.34,441.32Z" style="fill: #4e5b3b"/>
        <path d="M1446.2,333.39c.08,1.89-1.09,2.86-2.21,3.71a31.9,31.9,0,0,1-13.06,5.66c-1.91.41-2.68-.84-3.17-2.2-1.58-4.33-3.2-8.67-4.51-13.1-2.38-8.08-2.28-8.11-10.77-8-11.5.2-23,.59-34.51.49-4,0-6.21,1.45-7.68,5-1.1,2.64-2.66,5.09-4,7.64q-4,7.69-12.39,4.59a19.43,19.43,0,0,1-7-4.93,3.13,3.13,0,0,1-.68-3.85A222.81,222.81,0,0,1,1355.7,307c6-11.46,11.72-23.05,18.18-34.26,4.78-8.29,9.46-16.64,14.38-24.85,1.5-2.52,2.34-4.74.9-7.56-1.62-3.18-1.94-6.34.71-9.34,3.28-3.72,6.81-6.74,12.21-6.44,1.79.1,2.92,1.19,4,2.34,4.69,4.91,7.94,10.76,10.75,16.87,11.13,24.14,18.49,49.56,25.41,75.12,1.16,4.31,2.27,8.63,3.42,12.94C1445.84,332.39,1446.07,333,1446.2,333.39Zm-65.53-30.52c1.27.92,2.24.64,3.16.72,3.7.34,7.23-1,10.91-1,5.1,0,10.21-.25,15.31-.41,5.51-.19,5.6-.24,4.15-5.38-2-7.2-4.1-14.39-6.35-21.51a91.47,91.47,0,0,0-5.12-13.63Zm-70.12-43.48c3.9,1.27,8,2.26,11.93,4,12,5.42,13.13,12.38,11.4,22.89-2.12,12.79-9.62,22-20.63,28.54-10,5.92-20.93,9.19-32.4,11.05-8.28,1.35-16.57.95-24.85,1.28-3.79.16-6.2-1.57-8.14-4.77-3.54-5.84-3.74-12.15-3.09-18.56.84-8.31.08-16.6.25-24.9a3.69,3.69,0,0,0-1-2.62c-3.57-4.07-2.68-8.44-.2-12.39a15.7,15.7,0,0,0,2.54-10c-.33-4.35.87-8.57.83-12.89,0-2.14-.24-4.12-1.65-5.84a7.74,7.74,0,0,1-1.27-2c-3.72-9.75-3.15-9.37,4.47-13.48a68.52,68.52,0,0,1,31.14-8.35c9.42-.25,18.84-.41,28.13,1.55a55.59,55.59,0,0,1,16.19,5.75c7.13,4.08,8.65,9.15,6.79,17.09-2.23,9.52-8.79,15.68-16.86,20.5-1.22.73-2.66,1.14-3.59,2.32C1310.47,258.69,1310.54,258.89,1310.55,259.39Zm-44.14,34.2h-.18c.06,3.34.08,6.69.19,10,.13,3.95.58,4.41,4.55,3.89a128.73,128.73,0,0,0,13.15-2.17c8.09-1.92,15.91-4.54,22.57-9.85a17.46,17.46,0,0,0,6.24-9.36c1.52-5.74-.49-9.61-6-11.85a21.59,21.59,0,0,0-7.42-1.63,91.12,91.12,0,0,0-28.31,3.41c-3.88,1.13-4.88,2.37-5,6.51C1266.16,286.25,1266.35,289.93,1266.41,293.59Zm22.44-65.08c-5,.74-10.36,1.45-15.68,2.35-3.6.61-4.39,1.29-4.69,4.94-.5,6-.62,12.06-.88,18.09-.09,2,.61,2.86,2.88,2.36,3.41-.74,6.91-1,10.34-1.66,8.19-1.52,16.1-3.78,22.94-8.88a14.69,14.69,0,0,0,4.94-6.29c2-4.79.62-7.68-4.37-9S1294.26,229.18,1288.85,228.51Zm-106.58-3.94c7.35-.13,14.71-.17,22-.43,3.7-.13,7.4-.63,9.62-4.25a13.14,13.14,0,0,0,.85-12.39,4,4,0,0,0-4.2-2.55c-4.47.11-8.92-.53-13.37-.63-17.88-.39-35.76,1.22-53.65.06a4.15,4.15,0,0,0-1.83.45,63.29,63.29,0,0,0-8.64,4.12c-5,3.25-5.45,4.43-3.48,10.13a9.54,9.54,0,0,0,2.24,4.18c1.72,1.58,2,3.51,1.91,5.66-.27,4.13-.61,8.27-1,12.38-.51,5.12-.54,10.36-3.74,15.05-2.25,3.3-1.89,7.39.52,10.86a6,6,0,0,1,1.1,4.05q-.51,6.19-1.07,12.38c-.69,7.6-1.4,15.21-2.06,22.82a4.93,4.93,0,0,0,.41,3.28c3.94,5.84,8.27,10.95,16.36,10.6,11.48-.49,23-.17,34.46-1.35a138.08,138.08,0,0,0,27.61-5.33c5.33-1.69,6.44-3.32,6.58-9,.2-8-4-11.72-11.72-10.09a200.77,200.77,0,0,1-37.93,4.4c-3.52.05-6.91,1.21-10.47,1-2.37-.16-3.44-1.13-3.42-3.57,0-3.19.89-6.29.83-9.52-.1-5.1.89-10.13,1.39-15.2.28-2.9,1.68-3.18,4-3.32,4.34-.25,8.58.68,12.9.64,10.54-.1,21-.57,31.56-1.34a8,8,0,0,0,5.74-2.9,13.1,13.1,0,0,0,3.11-9.32c-.16-5.61-3.34-8.12-9-8-2,0-3.75.83-5.65.87-12.31.28-24.62.46-36.93.79-2.59.06-3.28-1-3.28-3.42a139.58,139.58,0,0,1,.69-15.29c.51-4.64.64-5.12,5.37-5.25,7.35-.2,14.71-.27,22.06-.4ZM1010.4,296.28c.12-13.41,0-26.84.49-40.23.31-8.42-.48-16.91,1-25.31a8.66,8.66,0,0,0-1.88-7.13c-3.33-4.31-2.79-9.38,1.15-13.34a46.61,46.61,0,0,1,21.47-12c10.5-2.83,21.26-2.88,31.89-2.23,11,.67,21.28,4,30,11.32,9,7.49,10.38,15.55,6.35,26.14a37.3,37.3,0,0,1-11.55,15.64c-12.65,10.36-27.45,16.09-43.09,19.92a64.1,64.1,0,0,1-12.69,2.2c-2.18.09-2.41,1.3-2.61,3.13-1.14,10.21-.19,20.43-.18,30.64,0,7.1.07,7-7,9a17.94,17.94,0,0,1-6.15.65c-4.4-.27-6.88-2.94-7-7.38C1010.49,303.64,1010.46,300,1010.4,296.28Zm21.7-43.79a82.62,82.62,0,0,0,14.22-2.23,120.15,120.15,0,0,0,14.15-4.42c6.61-2.62,12.77-6,17.21-11.74,4.2-5.42,5.15-12.16-.75-15.92a23.34,23.34,0,0,0-7.92-3.27,70.57,70.57,0,0,0-10.94-.95c-7.77-.36-15.16,1.33-22.45,3.7a3.49,3.49,0,0,0-2.66,3.48c-.62,9.07-1.5,18.11-1.46,27.2C1031.5,249.59,1031.23,250.9,1032.1,252.49ZM937,194.65c-9.72.56-19.41,1.76-29.16,1.84a27.65,27.65,0,0,0-16.13,5.14c-5.55,3.91-6.24,6.41-2.87,12.34a8,8,0,0,0,1.73,2.27c1.95,1.58,2.36,3.59,2.34,6-.05,6.06.06,12.12-.56,18.17-.26,2.56-.48,4.87-1.79,7.26-2,3.74-3,8.12,0,11.73,2.27,2.73,2.37,5.63,1.91,8.52-.63,4-.38,8-.49,11.95-.14,5.58.48,11.16-.52,16.74-.68,3.83.73,6.92,3.44,9.94,5.1,5.69,11.32,6.8,18.31,5.82,9.62-1.34,19.36-1.46,29-3,10.59-1.75,21-3.88,30.88-8.19,1-.45,2.16-.74,2.57-1.94,1.32-3.88,1.87-7.82,0-11.66-2-4-5.19-5.75-9.45-4.58a302.94,302.94,0,0,1-34.65,6.91c-4.88.75-9.82,1.14-14.75,1.43-3.43.21-3.56,0-3.64-3.37-.14-5.6-.14-11.2-.19-16.8a34,34,0,0,1,.62-8.1c.33-1.44.78-2.28,2.37-2.41,3.17-.27,6.33-.91,9.51-.95,11.67-.15,23.19-2,34.82-2.72,5.39-.31,7.64-3.8,9-8.46s-.16-8.11-3.2-11.31a2.9,2.9,0,0,0-2.56-1c-6.8.81-13.6,1.65-20.41,2.31-8.57.84-17.12,1.9-25.75,2.05-2.29,0-3.14-.86-3.15-3.07,0-5.6-.09-11.2-.28-16.79-.08-2.18.71-3,2.85-3.51,5.65-1.29,11.43-1.28,17.11-1.7,9.86-.73,19.72-1.45,29.52-2.76,2.62-.35,5.4-.58,7.45-2.76A11.94,11.94,0,0,0,973.1,197c-1.07-2.49-2.52-3.8-5.45-3.59-4.14.29-8.31.2-13.62.29C949.13,194.09,943.07,194.3,937,194.65ZM863.68,302.92c.08,4.48.13,9,.24,13.43.14,5.89-3.08,9.88-9,11-1.25.24-2.54.26-3.79.49-4.19.77-4.84.59-6.17-3.12A42.59,42.59,0,0,1,842.27,307c.2-2.63-.53-3.14-3.41-2.82-9.18,1-18.38,1.91-27.56,2.93-12.82,1.42-25.62,3-38.46,4.29-2.94.3-3.39,1.7-3.08,4.09.42,3.16.75,6.33,1.22,9.48.45,2.94-.76,4.83-3.29,6.25a43.86,43.86,0,0,1-12,4.64c-2.12.46-3.42,0-4.07-2.63-2.66-10.57-4.52-21.21-4.07-32.16.25-6,1.91-8.11,8-8.2,4.69-.06,6.86-2.2,8.49-6.12a95.58,95.58,0,0,0,6.53-25.9c1.52-13,2.76-26,2.43-39.11,0-.48,0-1,0-1.44-.13-3.71-.17-4.06-3.81-3.6-4.73.59-7.23-1.79-8.88-5.61-1.72-4-2-8,.5-11.91a5.12,5.12,0,0,1,3.64-2c4.68-1,9.34-2,14.06-2.76,9.43-1.48,18.88-2.89,28.35-4.1,7.27-.93,14.58-1.59,21.88-2.21,3.7-.32,8.13,3.22,9.08,7.13a97.38,97.38,0,0,1,2.07,16.57c.67,10.19,1.21,20.41,1.9,30.59.55,8.13.87,16.26,1.06,24.39.1,4.49,1.14,8.86,1.13,13.34,0,2.28,1.42,2.49,3.21,2.38a41.93,41.93,0,0,1,12.39.74c3.3.78,3.67,1,3.76,4.4.15,5.12.2,10.24.29,15.36Zm-42-47.52c.37-10.44-1.16-23.64-1.82-36.88-.11-2.21-.71-4.4-1-6.61-.21-1.67-1.23-2-2.67-2A132.3,132.3,0,0,0,795.76,212c-2.17.37-3,1.31-2.87,3.49.22,4.78-.33,9.57-.35,14.32a288.56,288.56,0,0,1-1.65,30.56,148.76,148.76,0,0,1-4.31,23.48c-.51,1.82-2.16,4-1.24,5.41,1.39,2.15,3.77,0,5.7-.15,9.37-.66,18.67-2.09,28-3.23,2.57-.31,3.17-1.37,3.11-3.67C821.93,274.24,821.83,266.24,821.65,255.4Zm-246.31-12c.7,3.48.67,7,1.16,10.45,1.09,7.72,2,15.45,3,23.19s1.66,15.52,2.58,23.26c1,8.22,2.2,16.41,3,24.63a7,7,0,0,0,3.62,5.78,13.93,13.93,0,0,0,9.2,1.94c5.61-.78,9.9-5.43,9.19-10.37-.89-6.3-1.68-12.61-2.32-18.95-.84-8.23-2.09-16.41-3.07-24.63-.89-7.43-1.47-14.9-2.54-22.3-1.54-10.7-3.11-21.41-5.06-32-.64-3.49-2.52-5.33-5.41-6.65-3.93-1.78-7.56-.59-10.9,1.5-3.65,2.28-4.9,5.74-4.1,8.75C574.27,233.9,574.4,238.73,575.34,243.39ZM517.62,269c4.12.45,7.58.72,11,1.24,9.08,1.36,16.29,5,17.53,18,1.5,15.87-5.26,27.81-16.74,37.63-13.83,11.82-30.39,17.94-47.86,21.84-7.51,1.68-13.26-2.12-15.35-10-2.85-10.78-5.14-21.69-7.27-32.63-.29-1.45-.45-2.77-1.89-3.63A9,9,0,0,1,453.26,290c1.88-4.66.76-8.75.17-13.07-.28-2-.72-4.06-1-6.11-.65-4.36-1-8.91-5.31-11.69a7.64,7.64,0,0,1-2-2.68c-3.22-5.57-2.84-5.92,1.76-10.3,11.7-11.13,26.05-16.38,41.46-19.41a95.9,95.9,0,0,1,19-2.24,44.31,44.31,0,0,1,15.47,2.64c6,2.26,8.76,6,9.12,12.56.52,9.2-3.19,16.39-8.94,23C521.3,264.59,519.16,266.07,517.62,269Zm-31.93,57.32a54.58,54.58,0,0,0,11.45-3.8c8.54-3.69,16.78-7.94,23.08-15.07,3.35-3.78,5.79-8,5.71-13.3s-3.46-9.1-8.78-9.28a39.29,39.29,0,0,0-12.34,1.09c-8.17,2.31-16.16,4.95-23.33,9.67-1.81,1.2-2.69,2.27-2,4.66.86,2.88.93,6,1.61,8.92C482.42,314.9,483.39,320.71,485.69,326.29Zm16-83.47a71.38,71.38,0,0,0-27.4,7.56,4.68,4.68,0,0,0-2.93,5.31c.64,6,2,11.9,3.17,17.83.41,2.18,1.27,2.52,3.26,1.81,8.91-3.17,17.51-6.94,25-12.77,4.23-3.28,7.52-7.29,8.29-12.94.58-4.26-1.21-6.66-5.59-6.85C504.26,242.71,503,242.8,501.7,242.82ZM366,371.44c-19.18.57-33.39-8.35-43.54-23.94a67.05,67.05,0,0,1-10.84-43.36,54.58,54.58,0,0,1,21.21-39.28,60.25,60.25,0,0,1,35.3-13.2c23.37-1,41.47,10.74,51.08,31.79a67.73,67.73,0,0,1,6.55,28.7c-.1,13.62-4.08,26-13.07,36.6-10.58,12.49-24.14,19.53-40,22.52A40.38,40.38,0,0,1,366,371.44Zm2.25-99.85c-1.95-.32-4.59.54-7.19,1.21-14.63,3.77-24.52,12.57-28.06,27.57a39.83,39.83,0,0,0-.35,16.57c1.41,7.66,3.52,14.93,8.16,21.22,4.88,6.61,11,11.3,19.52,12.62,9.36,1.44,17.73-1.08,25.62-5.56,12.27-7,18.63-17.8,18.59-31.8a48.35,48.35,0,0,0-6-23.89C392.12,278.07,382.52,271.7,368.28,271.59ZM224.14,334.84c-1.68-5.32-3.41-10.63-5.06-16a88.42,88.42,0,0,0-7.34-17.65c-1-1.79-2.1-3.25-4.44-2.79-3.29.64-6.6,1.27-9.56,2.94-3.92,2.22-5.16,5.2-4,9.58,1.14,4.15,2.38,8.27,3.68,12.37,4.65,14.61,10.08,28.93,15.62,43.21S224.44,395,230.65,409c1.34,3,2.51,3.62,5.64,2.85a21.36,21.36,0,0,0,11.11-7.12c2.23-2.59,3-5.09,1.31-8.61-4.14-8.8-7.79-17.83-11.64-26.77-3.1-7.2-3.1-7.2,1-13.92,1.92-3.16,2.46-3.33,5.63-1.37q13.86,8.55,27.68,17.15c9,5.54,18,11,26.88,16.62,1.82,1.14,3.44,1.57,5.29.26a19.29,19.29,0,0,0,7.43-9.16c1.33-3.73.46-6.2-2.88-8.58-3.51-2.51-7-5-10.57-7.44a485.14,485.14,0,0,0-42.74-25.5c-5-2.64-5.93-1.69-2-8.46,5.37-9.25,10.8-18.47,15.18-28.25a66.81,66.81,0,0,0,4.73-13.53c.25-1.16.43-2.08-.46-3.08a11.67,11.67,0,0,0-18.94,2.41c-6.61,12.57-13.19,25.17-20.05,37.61-2.37,4.29-4.11,9-7.42,12.93A3.06,3.06,0,0,1,224.14,334.84ZM195,431.67c2.75-2.87,3.48-6.34,1.93-9.58q-8.58-17.94-17.18-35.84c-4.33-9.08-8.47-18.24-12.95-27.24s-8.91-18-14.16-26.65a7,7,0,0,0-2.88-3.09c-3.91-1.8-7.59-.92-10.85,1.39s-5.65,5.19-4.89,9.66a18.55,18.55,0,0,0,1.93,4.87q8.91,18.56,17.8,37.13c7.69,16.14,15.4,32.26,23,48.46,1.74,3.73,4.6,5,7.17,5.13C188.05,435.89,193,433.79,195,431.67Zm-90.66-29c3.8-1.16,7.28-2.25,10.79-3.28a17.27,17.27,0,0,1,3.28-.62c11-1.05,15.76,1.83,21.06,13.32,5.93,12.83,4,25.57-2.13,37.86-8.74,17.57-22.71,30.23-38.75,40.92a6.64,6.64,0,0,1-6.79.56,23.67,23.67,0,0,1-10.62-8.59c-5.32-7.78-10.9-15.38-16.28-23.11a8.73,8.73,0,0,0-4.69-3.7c-4.74-1.58-7.06-5.45-7.3-10.25a13.2,13.2,0,0,0-2.52-7.51c-2.06-2.84-3.9-5.85-5.71-8.86-2.29-3.82-4.19-8-9.42-8.59-.57-.06-1.07-.67-1.61-1-5.78-3.65-6.19-5-3.39-11.24,5.51-12.28,14.32-21.82,25-29.67,7-5.09,14.17-9.82,22.22-13.14A63.58,63.58,0,0,1,89.87,362c7.56-1.47,13.47,1.83,16.76,8.81,4.25,9,2.56,17.71-.89,26.42C105.12,398.83,103.78,400.21,104.35,402.65Zm18.27,26.27a32.5,32.5,0,0,0-.09-3.83c-.67-5-4.45-8.12-9.49-8.1a15.26,15.26,0,0,0-7.32,1.89c-7.56,4-13.73,9.8-19.59,15.92-2,2.05-3.39,4.62-5.16,6.86a3,3,0,0,0-.21,3.9,237.75,237.75,0,0,0,14,19.94c1.69,2.1,2.81,1.9,4.63.4a83.91,83.91,0,0,0,17.2-19.16C120.16,441.32,122.85,435.59,122.62,428.92ZM91.24,391.19c0-.64,0-1.28,0-1.91-.64-6.31-3.37-8.12-9.27-5.87-10.58,4-18.49,11.62-25.9,19.83a3.23,3.23,0,0,0-.22,4.36c3.58,5.45,7.18,10.89,10.7,16.38,1,1.49,1.83,1.48,3,.3,5.81-5.89,12.08-11.42,16.55-18.45C88.87,401.42,91.38,396.72,91.24,391.19Z" style="fill: #83a862"/>
      </g>
    </g>
  </g>
</svg>
