<?xml version="1.0" encoding="utf-8"?>
<!-- Generator: Adobe Illustrator 23.0.1, SVG Export Plug-In . SVG Version: 6.00 Build 0)  -->
<svg version="1.1" id="Шар_1" xmlns="http://www.w3.org/2000/svg" xmlns:xlink="http://www.w3.org/1999/xlink" x="0px" y="0px"
	 viewBox="0 0 256 256" style="enable-background:new 0 0 256 256;" xml:space="preserve">
<style type="text/css">
	.st0{fill:#666633;}
	.st1{fill:#BDCCD4;}
	.st2{fill:#FEAF65;}
</style>
<path class="st0" d="M27.7,221.1c-1.5,3.1-0.8,6.8,1.6,9.3l0,0c16.9,16.8,44.1,16.8,60.9,0l0,0c2.5-2.5,3.1-6.2,1.6-9.3l-32.1-68.9
	L27.7,221.1z"/>
<path d="M47.3,171c-1,2.2-0.1,4.7,2,5.7c2.1,0.9,4.7,0.1,5.7-2l0,0l5.4-11.6l28.2,60.6c0.7,1.5,0.4,3.3-0.8,4.4
	c-15.2,15.1-39.7,15.1-54.9,0c-1.2-1.2-1.5-3-0.8-4.4l9.4-20c1-2.1,0.1-4.7-2-5.7c-2.2-1-4.7-0.1-5.7,2l0,0c0,0,0,0.1-0.1,0.1
	L24.5,220c-2.2,4.8-1.2,10.4,2.5,14.2c18.5,18.5,48.5,18.5,67,0c3.7-3.7,4.7-9.4,2.5-14.1l-36-77.2"/>
<path d="M43.9,182.2c-2.4,0-4.3,2-4.3,4.3c0,2.4,2,4.3,4.3,4.3c2.4,0,4.3-1.9,4.3-4.3c0-1.2-0.4-2.3-1.2-3.1S45,182.2,43.9,182.2z"
	/>
<path class="st1" d="M78.2,114.1c7.1-4.1,15.9-3.1,21.8,2.5l13.9-8.2l9.2-5.5l1.5-3.4l-18-72.4c0,0,22.2,1.5,22.6,23.7l0.2-12.8
	c0,0,10.6,2.8,15.9,13.2l-20.7,48.1l37.6-87c0,0,16.8,14.6,3.6,32.6l7.9-10c0,0,14,17.7-4.6,36.4l10.5-10c0.7,2.5,1,5,1.1,7.6
	l21.8-12.9c12.5,21,5.5,48.2-15.5,60.7c0,0-0.1,0-0.1,0.1l-11.8,6.9c-10.3,6.1-22.7,7.7-34.2,4.4c-11.6-3.3-23.9-1.7-34.3,4.4
	l-1.4,0.8l-0.1-0.5c-1.8,9.8-11.2,16.3-21,14.5s-16.3-11.2-14.5-21C70.6,121.2,73.7,116.8,78.2,114.1z"/>
<polygon class="st2" points="81.2,147.4 22.5,168.1 68.8,126.5 "/>
<path d="M173.2,20.9c-1.8-4.4-4.7-8.5-8.1-11.8c-1.7-1.6-4.4-1.5-6,0.3L159,9.5c-0.3,0.4-0.5,0.7-0.7,1.1l-13.8,31.9
	c-3.8-4.1-8.7-7.1-14-8.7c-0.8-0.2-1.6-0.1-2.4,0.1c-2-2.7-4.7-4.9-7.6-6.6c-4.2-2.4-8.9-3.9-13.7-4.4c-2.3-0.1-4.4,1.6-4.6,3.9v0.1
	c-0.1,0.4,0,0.9,0.1,1.3L120.1,99c-0.5,0.8-1.2,1.5-2,2l-6.4,3.9c-2,1.2-2.8,3.8-1.6,5.8s3.8,2.8,5.8,1.6l0,0
	c0.1-0.1,0.1-0.1,0.1-0.1l6.4-3.9c2.6-1.5,4.7-3.9,5.9-6.7l0.1-0.4l0,0l34.9-80.7c0.8,1.2,1.5,2.5,2,3.9c2.3,6,1.3,12.1-2.9,17.9
	L161,44c-1.5,1.8-1.2,4.5,0.7,6c0,0,0,0,0.1,0.1c1.8,1.4,4.4,1.1,5.9-0.6c0.6-0.7,1.2-1.5,1.7-2.1l3.8-4.8c0.6,1.6,1,3.3,1.3,5
	c0.9,7.2-1.7,14.1-8.1,20.5l-2,1.8c-1.8,1.5-2.1,4.2-0.6,6c1.5,1.8,4.2,2.1,6,0.6c0.1-0.1,0.2-0.2,0.4-0.4c0.7-0.7,1.4-1.3,2-2
	l4.4-4.1c0.1,8.9-3.1,23.8-22.5,35.3l-0.4,0.2l0,0c-2.1,1.1-2.8,3.7-1.7,5.8s3.7,2.8,5.8,1.7c0.1-0.1,0.2-0.1,0.3-0.1l0,0l0.4-0.3
	c18-10.7,24-24.3,25.9-33.9c1.2-6.3,1.1-12.8-0.5-19c-0.3-0.9-0.9-1.7-1.7-2.3c1-3.8,1.2-7.8,0.6-11.7c-0.7-5-2.7-9.8-5.7-13.9
	c-0.5-0.7-1.2-1.1-2-1.4C175.2,27.3,174.5,24,173.2,20.9z M140.6,51.6l-14.9,34.5l-13.2-53.2c1.4,0.5,2.7,1.2,3.9,1.9
	c5.5,3.4,8.4,8.7,8.5,16l-0.1,2.3c-0.1,2.4,1.8,4.4,4.1,4.4c2.4,0.1,4.4-1.8,4.4-4.1l0,0c0.1-0.9,0.1-1.8,0.1-2.7l0.1-6.1
	C136.5,46.4,138.8,48.8,140.6,51.6L140.6,51.6z"/>
<path d="M228.6,105.6c-0.6,2.3,0.8,4.7,3.1,5.2c2.3,0.6,4.7-0.8,5.2-3.1c0.6-2.3-0.8-4.7-3.1-5.2l0,0c-1.1-0.3-2.3-0.1-3.3,0.4
	C229.6,103.6,228.8,104.5,228.6,105.6z"/>
<path d="M19.5,169.8c1,1.7,3.2,2.5,5.1,1.8l26.9-9.5l12.6-4.4l18.3-6.5c11.3,2.6,22.8-3.9,26.2-15l0.3-0.1
	c9.4-5.5,20.6-6.9,31.1-3.9c10,2.8,20.7,2.3,30.5-1.6l19.3,4.9c1.1,0.3,2.3,0.1,3.3-0.4l28.5-16.9c2-1.2,2.7-3.9,1.5-5.9
	c-0.1-0.1-0.1-0.2-0.1-0.3c-1.3-1.9-3.9-2.4-5.8-1.2l-26.8,15.9l-8.4-2.2l7.4-4.4c23.1-13.7,30.8-43.6,17.1-66.7
	c-1.2-2-3.9-2.7-5.9-1.5l-6,3.6c-2,1.2-2.8,3.8-1.6,5.8c1.2,2,3.8,2.8,5.8,1.6c0.1-0.1,0.1-0.1,0.1-0.1l2.2-1.3
	c8.4,18.6,1.6,40.6-16,51.1l-11.9,6.9c-9.3,5.5-20.5,7-30.9,4.1c-10.8-3.1-22.4-2.2-32.7,2.4c-1.9-12.2-13.2-20.6-25.4-18.7
	c-8.7,1.3-15.7,7.6-18.1,16l-45.7,40.9C18.9,165.8,18.5,168.1,19.5,169.8z M75.6,136.6c-3.9-6.5-1.7-15,4.8-18.8
	c6.5-3.9,15-1.7,18.8,4.8c3.9,6.5,1.7,14.9-4.8,18.8C87.9,145.3,79.5,143.1,75.6,136.6C75.6,136.7,75.6,136.7,75.6,136.6z
	 M42.1,156.4l23.6-21.2c1.1,4.1,3.3,7.8,6.3,10.7l-16.9,6l-4.6,1.6L42.1,156.4z"/>
</svg>
